<?xml version="1.0" encoding="utf-8"?>
<!-- Generator: Adobe Illustrator 16.0.0, SVG Export Plug-In . SVG Version: 6.00 Build 0)  -->
<!DOCTYPE svg PUBLIC "-//W3C//DTD SVG 1.1//EN" "http://www.w3.org/Graphics/SVG/1.1/DTD/svg11.dtd">
<svg version="1.1" id="图层_1" xmlns="http://www.w3.org/2000/svg" xmlns:xlink="http://www.w3.org/1999/xlink" x="0px" y="0px"
	 width="200px" height="40px" viewBox="0 0 200 40" enable-background="new 0 0 200 40" xml:space="preserve">
<g>
	<g>
		<g>
			<path fill="#F78B14" d="M26.715,37.414c0,0-2.111,1.319-2.903,0c-0.399-0.665,1.452-3.168,1.452-3.168
				s11.595-16.31,19.244-16.711c8.808-0.462,12.674,7.522,12.674,7.522s0.901,1.597,0.259,3.036
				c-1.077,2.408-3.432,0.262-3.432,0.262s-5.824-5.14-10.962-2.966C37.909,27.565,26.715,37.414,26.715,37.414z"/>
			<linearGradient id="SVGID_1_" gradientUnits="userSpaceOnUse" x1="30.8892" y1="26.6797" x2="46.3207" y2="38.4422">
				<stop  offset="0" style="stop-color:#FF523F;stop-opacity:0.5"/>
				<stop  offset="1" style="stop-color:#6D001C"/>
			</linearGradient>
			<path fill="url(#SVGID_1_)" d="M26.715,37.414c0,0-2.111,1.319-2.903,0c-0.399-0.665,1.452-3.168,1.452-3.168
				s7.452-11.866,15.107-12.13c7.654-0.264,13.638,6.239,13.638,6.239s-5.824-5.14-10.962-2.966
				C37.909,27.565,26.715,37.414,26.715,37.414z"/>
		</g>
		<g>
			<path fill="#D32C16" d="M3.266,32.313c0,0-1.842,1.152-2.533,0C0.384,31.733,2,29.551,2,29.551S8.79,19.38,15.464,19.029
				c7.685-0.403,11.06,6.564,11.06,6.564s0.786,1.395,0.226,2.649c-0.94,2.102-2.995,0.229-2.995,0.229s-5.083-4.485-9.566-2.587
				C9.707,27.781,3.266,32.313,3.266,32.313z"/>
			<linearGradient id="SVGID_2_" gradientUnits="userSpaceOnUse" x1="5.2832" y1="25.0078" x2="18.6372" y2="35.1867">
				<stop  offset="0" style="stop-color:#FF523F;stop-opacity:0.5"/>
				<stop  offset="1" style="stop-color:#6D001C"/>
			</linearGradient>
			<path fill="url(#SVGID_2_)" d="M3.266,32.313c0,0-1.842,1.152-2.533,0C0.384,31.733,2,29.551,2,29.551s3.175-6.294,9.854-6.524
				c6.679-0.229,11.901,5.446,11.901,5.446s-5.083-4.485-9.566-2.587C9.707,27.781,3.266,32.313,3.266,32.313z"/>
		</g>
		<g>
			<path fill="#18A1D1" d="M44.371,12.293c0,0-2.493-3.73-5.94-6.75c-1.321-1.417-3.322-2.955-6.066-3.541
				c-0.485-0.122-0.972-0.205-1.458-0.23c-0.26-0.014-0.513-0.017-0.764-0.015c-0.249-0.002-0.502,0.001-0.762,0.015
				c-0.487,0.026-0.973,0.108-1.458,0.23c-2.744,0.586-4.745,2.125-6.066,3.541c-3.447,3.021-5.94,6.75-5.94,6.75
				s-1.616,2.183-1.267,2.763c0.69,1.152,2.534,0,2.534,0s6.439-4.533,10.922-6.43c0.672-0.285,1.358-0.413,2.037-0.447
				c0.681,0.034,1.366,0.162,2.038,0.447c4.483,1.897,10.923,6.43,10.923,6.43s1.843,1.152,2.534,0
				C45.985,14.476,44.371,12.293,44.371,12.293z"/>
			<linearGradient id="SVGID_3_" gradientUnits="userSpaceOnUse" x1="19.1499" y1="7.8135" x2="32.6584" y2="18.1102">
				<stop  offset="0" style="stop-color:#6ABAFF;stop-opacity:0.5"/>
				<stop  offset="1" style="stop-color:#004CBF"/>
			</linearGradient>
			<path fill="url(#SVGID_3_)" d="M17.183,15.056c0,0-1.843,1.152-2.534,0c-0.349-0.581,1.266-2.763,1.266-2.763
				s3.175-6.294,9.855-6.524c6.679-0.23,11.901,5.764,11.901,5.764s-1.523-0.912-3.472-1.952c-2.256-1.204-3.964-1.856-6.094-0.955
				C23.622,10.523,17.183,15.056,17.183,15.056z"/>
		</g>
	</g>
	<g>
		<path d="M70.147,29.856c1.596-0.352,2.748-0.932,3.459-1.729c2.04-2.217,3.769-5.057,5.189-8.516H67.778v-3.061h25.386
			l1.996-1.875l3.459,2.94v1.996H81.59l3.06,0.824c-2.395,3.191-4.746,6.715-7.051,9.021c2.926,0.091,6.829,0,11.708-0.266
			c-0.179-0.354-0.489-0.843-0.931-1.464c-0.711-1.063-1.243-1.862-1.597-2.395l1.73-1.462c3.104,2.04,5.542,3.99,7.317,5.853
			c0.62,0.445,0.753,1.065,0.4,1.862c-0.533,1.331-1.198,2.528-1.996,3.593c-0.622,0.798-1.197,0.752-1.73-0.133
			c-0.532-1.065-1.064-2.043-1.596-2.928c-7.717,1.064-14.37,1.862-19.957,2.395L70.147,29.856z M71.237,7.904h18.468l1.862-1.477
			L94.495,9.5v1.464H71.237V7.904z"/>
		<path d="M101.414,19.08c5.853-3.992,10.197-7.859,13.038-13.537l5.587-0.009l-1.462,2.635c3.989,3.459,8.825,5.854,14.5,7.185
			l-3.458,5.056c-5.5-2.749-9.758-6.164-12.772-10.244c-2.395,2.661-5.277,5.101-8.647,7.317h4.39
			c-0.089,1.775-0.265,3.458-0.533,5.055c1.244,0.713,2.706,1.776,4.392,3.194c0.354,0.355,0.399,0.797,0.133,1.329
			c0,0.09-0.044,0.181-0.133,0.268c-0.711,1.243-1.286,2.128-1.729,2.661c-0.18,0.266-0.357,0.398-0.533,0.398
			c-0.18-0.088-0.355-0.31-0.533-0.665c-0.532-1.064-1.328-2.481-2.394-4.258c-1.242,3.903-4.036,7.185-8.382,9.846l-1.597-1.463
			c4.345-3.813,6.34-9.048,5.986-15.7c-1.33,0.888-2.75,1.729-4.256,2.528L101.414,19.08z M129.353,35.578
			c-2.75-2.486-4.923-5.322-6.52-8.517c-1.33,3.461-4.125,6.474-8.381,9.049l-1.73-1.464c4.259-3.547,6.34-8.382,6.253-14.502V17.35
			h5.188v2.794c0,0.887-0.088,1.819-0.266,2.793c2.041,3.64,5.19,6.52,9.446,8.648L129.353,35.578z"/>
		<path d="M136.005,7.105h25.413l1.597-1.149l3.097,2.747v1.596h-3.763v22.219c0.004,1.805-1.42,2.927-5.854,3.193
			c-0.091-1.775-1.243-2.708-3.458-2.794v-1.831c3.458,0.445,4.415,0.218,4.389-1.096V10.299h-21.421V7.105z M150.172,27.309h-7.444
			v1.51h-4.633V11.981h4.633v1.227h7.444v-1.227h4.632v16.837h-4.632V27.309z M142.728,24.363h7.444v-8.209h-7.444V24.363z"/>
		<path d="M173.658,35.711V19.878c-0.357,0.532-0.888,1.243-1.599,2.129c-0.444,0.531-0.753,0.931-0.931,1.198l-1.861-1.331
			c3.014-5.941,5.187-11.708,6.519-17.297l5.456,1.597c-0.357,1.064-0.8,2.041-1.331,2.927h7.85
			c-0.18-0.533-0.488-1.285-0.933-2.262c-0.444-0.975-0.755-1.729-0.931-2.262l1.73-0.931c1.772,0.977,3.146,2.042,4.125,3.193
			c0.619,0.532,0.664,1.065,0.133,1.597c-0.091,0.089-0.18,0.179-0.267,0.267c0,0.089-0.133,0.222-0.399,0.399h4.655l1.199-0.824
			L200,10.431v1.597h-20.622v-1.597l-1.063,1.996v23.284H173.658z M181.108,14.157h12.772l1.33-0.691l2.794,2.154v1.331h-16.896
			V14.157z M180.723,19.213h13.158l1.199-0.69l2.925,2.021v1.464h-17.282V19.213z M180.974,23.47h4.524v0.933h7.716V23.47h4.791
			v12.373h-4.655v-1.729h-7.852v1.597h-4.524V23.47z M185.498,27.196v4.39h7.852v-4.39H185.498z"/>
	</g>
</g>
</svg>
