<svg id="Layer_1" enable-background="new 0 0 256 256" height="512" viewBox="0 0 256 256" width="512" xmlns="http://www.w3.org/2000/svg"><g id="Layer_72"><g><g fill="#87d147"><circle cx="72.5" cy="156" r="13.6"/><circle cx="150.5" cy="102" r="13.6"/><circle cx="167.5" cy="134" r="13.6"/><circle cx="203.5" cy="175" r="13.6"/><circle cx="45.5" cy="120" r="13.6"/></g><circle cx="72.5" cy="156" fill="#b2e26d" r="5.8"/><circle cx="45.5" cy="120" fill="#b2e26d" r="5.8"/><circle cx="150.5" cy="102" fill="#b2e26d" r="5.8"/><circle cx="167.5" cy="134" fill="#b2e26d" r="5.8"/><circle cx="203.5" cy="175" fill="#b2e26d" r="5.8"/><path d="m68 87.1s4.2 5 8.3 4.1 5 6.6 8.3 7 8.3-1.8 10-4.5 7.3-10.4-1.2-9.8-30-4.1-25.4 3.2z" fill="#3a70bf"/><path d="m109.6 108.5c-.3-1.7-.4-3.3-.2-5 .3-1.5-.7-3-2.2-3.3-.5-.1-.9-.1-1.4.1-5.4 2-6.8 10.2-5.5 12.1 1.6 2.2 10.3 2.6 9.3-3.9z" fill="#3a70bf"/><path d="m85 161.2c-2.8 6.9-10.7 10.3-17.7 7.4-6.7-2.7-10.1-10.3-7.6-17.1-.2-.2-.3-.3-.5-.5-5.3-5.8 2.1-6.9-9.5-15-1-.7-1.9-1.5-2.7-2.4-7.4.8-14.1-4.5-15-12-.8-7.4 4.5-14.1 12-15 6.9-.8 13.2 3.8 14.7 10.6 3.3-7.4 9.2-4.6 13.2-8.9 4.2-4.6-1.1-11.6-8.5-11.6s-7.4-10.5-14.8-7-15.9 0-21.2 5.8-22.2-8.1-24.8 1.7c0 0-1.1 9.2 6.4 12.7s5.3 11.6 9.5 16.2 2.1 18.5 10.6 18.5 19.1-3.5 21.2 5.8-4.2 15 4.2 19.7 4.2 9.2 3.2 16.2c-1 6.4-4.6 19.6 1.4 23.5.9.6 2 .7 3.1.5 2.7-.7 4.3-3.5 3.6-6.1 0-.2-.1-.3-.1-.5-.6-1.3-.6-2.8.1-4.1 2.1-3.5 7.4-4.6 9.5-9.2s3.2-5.8 3.2-9.2 9.5-8.1 9.5-15c-.2-3-1.4-4.3-3-5z" fill="#3a70bf"/><path d="m251.5 102c-4.3-3.2-8.9-1.2-13.5-1.5-7.1-.3-13.4-6-20.5-5.8-2.5.1-4.9.9-7.4 1.2-6.4.8-12.8-1.6-19.2-.8-7.6 1-15 6.4-22.4 4.2-2.1-.6-4-1.7-5.7-3 3.2 6.8.3 14.9-6.5 18s-14.9.3-18-6.5c-1.5-3.1-1.7-6.7-.6-9.9-.6-.4-1.1-.8-1.5-1.3-1.8-1.9-4.2-3.1-6.8-3.3-2.7-.1-5.2 1.5-6.2 3.9-.3 1.1-.7 2.1-1.3 3.1-.7.7-1.6 1.4-2.5 1.9-2.3 1.6-3 5.6-1.1 7.6s6 .7 9.5.3c2-.3 3.3 2.2 2.2 4-1.8 2.7-3.3 5.7-1.6 7.3 2.7 2.6 6.8-.9 10.4-.7 3.3.2 6 4.1 5.4 7.7-.6 3.5-3.8 6-7.4 5.7-2.1-.3-3.9-1.6-5.8-2.8-6.5-4.2-14.6-7-21.5-3.8-5.6 2.6-9.4 9.2-8.8 15.8s5.8 12.4 11.8 12.9c3.7.3 8.3-.8 9.7 3.8.2.8.3 1.5.3 2.3 0 5.3.5 10.5 1.3 15.8.8 4.8 2.3 10.1 6.3 12.2 1.1.7 2.5.8 3.7.2 1.2-.7 1.8-2.1 2.5-3.4 1.6-3.3 4-6.1 6.9-8.2 2.2-1.6 5-3.2 5.6-6 .6-2.9-1.2-5.9-.6-8.7.8-3.7 5-4.9 8.1-6.6 1-.5 2-1.5 1.8-2.6-.1-.5-.4-.9-.8-1.3-1.8-2.1-3.6-4.2-5.4-6.3 2.8-.1 5.4-1.1 7.6-2.8-5.9-4.6-7-13.1-2.4-19s13.1-7 19-2.4 7 13.1 2.4 19c-2.1 2.7-5.1 4.5-8.4 5.1.5 2.1.9 4.2 1.5 6.2.2.7.5 1.4 1.1 1.9.7.5 1.6.6 2.5.5 1.6.1 3.1-.2 4.6-.8 1.5-.7 2.4-2.3 2.3-4-.2-1.8-1.9-3.2-.6-5.4.7-1.3 2-2.1 3.5-2.1 2.1.2 3.8 2.1 4.6 4.2.6 2.2.8 4.5.4 6.8-.2 1-.1 2.1.3 3.1.5.7 1.2 1.3 2 1.6 1.7 1.1 3.3 2.5 4.6 4 3.2-1.9 7-2.5 10.6-1.5-.2-.3-.3-.5-.5-.8-1.3-1.9-1.2-4.5.3-6.3 1.1-1.4 2-3.1 2.6-4.8 1.6-4.3 3.3-8.9 1.5-13.4-.6-1.3-.5-2.8.3-4 1.8-2.6 4.6.1 7-.6 2.6-.8 2.7-5 4.5-7.2 1.4-1.7 3.7-2 5.6-2.9 5.2-2.5 8-9.9 13.7-11 3.8-.7 8.6 1.4 10.8-2.1.8-2.1.3-5-1.8-6.7z" fill="#3a70bf"/><path d="m236.6 188.5c-1.4-.7-2.5-1.8-3.3-3-.8-1.3-2.2-2.2-3.7-2.2-.9 0-1.7.2-2.5.6-2.1 1.2-4.2 0-6.4-3.5-1.5-2.5-3.1-.8-5.4 1.2-1.5 2.7-3.9 4.8-6.8 5.9-1.5 2.5-1.8 5.3-.5 6.7 2.1 2.3 2.1 8.1 6.4 3.5s10.6 0 12.7 2.3 7.4 2.3 7.4-1.2 6.3-8 2.1-10.3z" fill="#3a70bf"/><path d="m37.1 75.5c-2.5-.5-4.5-2.4-5-4.9 0-.1-.1-.1-.1-.1s-.1 0-.1.1c-.5 2.5-2.5 4.4-5 4.9-.1 0-.1.1-.1.1s0 .1.1.1c2.5.5 4.5 2.4 5 4.9 0 .1.1.1.1.1s.1 0 .1-.1c.5-2.5 2.5-4.4 5-4.9 0 0 .1-.1 0-.2z" fill="#fc657e"/><path d="m232.1 50.4c-4-.7-7.1-3.8-7.9-7.7 0-.1-.1-.2-.2-.1-.1 0-.1.1-.1.1-.8 4-3.9 7-7.9 7.7-.1 0-.2.1-.1.2 0 .1.1.1.1.1 4 .7 7.1 3.8 7.9 7.7 0 .1.1.2.2.1.1 0 .1-.1.1-.1.8-4 3.9-7 7.9-7.7.1 0 .2-.1.1-.2 0 0 0-.1-.1-.1z" fill="#f5c84c"/><circle cx="198" cy="213.5" fill="#fc657e" r="3"/><circle cx="40" cy="180.5" fill="#87d147" r="3"/><circle cx="199" cy="42.5" fill="#87d147" r="3"/><path d="m177.8 205.4h-2.1v-2.1c0-1.5-1.3-2.8-2.8-2.8s-2.8 1.3-2.8 2.8v2.1h-2.1c-1.5 0-2.8 1.3-2.8 2.8s1.3 2.8 2.8 2.8h2.1v2.1c0 1.5 1.3 2.8 2.8 2.8s2.8-1.3 2.8-2.8v-2.1h2.1c1.5 0 2.8-1.3 2.8-2.8s-1.3-2.8-2.8-2.8z" fill="#70d6f9"/><path d="m104.6 116.3c1.2 0 2.3-.2 3.4-.6 3.1-1.2 4.7-4.1 4.1-7.7-.3-1.4-.3-2.9-.2-4.3.3-1.9-.5-3.9-2-5.1-1.4-1.1-3.3-1.4-5-.8-3.1 1.1-5.6 4-6.8 7.8-.8 2.5-1.2 6 .1 8 1.2 1.7 3.8 2.7 6.4 2.7zm-1.3-10.3c.6-1.6 1.8-2.8 3.3-3.5h.1c.2.1.2.4.2.6-.2 1.9-.2 3.8.2 5.7.3 1.6-.4 1.9-.8 2.1-1.3.5-2.7.5-4-.1 0-1.6.3-3.3 1-4.8z"/><path d="m151.9 187.5 2.1-3.5c.7-1.2.3-2.7-.8-3.4-1.2-.7-2.7-.3-3.4.8l-2.1 3.5c-.7 1.2-.3 2.7.8 3.4 1.1.8 2.7.4 3.4-.8z"/><path d="m228.8 133.3c-1.2-.7-2.7-.3-3.4.8l-3 5c-.7 1.2-.3 2.7.8 3.4 1.2.7 2.7.3 3.4-.8l3-5c.8-1.1.4-2.7-.8-3.4z"/><path d="m57.6 81.2c1.4 0 2.5-1.1 2.5-2.5s-1.1-2.5-2.5-2.5h-2.1c-1.4 0-2.5 1.1-2.5 2.5s1.1 2.5 2.5 2.5z"/><path d="m165.7 87.7c1.2.7 2.7.4 3.4-.8s.4-2.7-.8-3.4l-1.8-1.2c-1.2-.7-2.7-.4-3.4.8s-.4 2.7.8 3.4z"/><path d="m225.1 161.9c0-1.4-1.2-2.5-2.6-2.4-1.3 0-2.4 1.1-2.4 2.5 0 1.8 1.2 5.6 5.5 8 1.2.7 2.7.2 3.4-1s.2-2.7-1-3.4c-2.7-1.6-2.9-3.6-2.9-3.7z"/><path d="m241 164.1c-4.3-.8-5.5-2.1-5.7-2.2-.7-1.2-2.2-1.6-3.4-1-1.1.6-1.6 2-1 3.2.4.8 2.2 3.6 9.2 4.9 4 .7 4.3 2.9 4.3 3.3 0 1.4 1.1 2.5 2.5 2.5s2.5-1.1 2.5-2.5c0-2.3-1.7-7-8.4-8.2z"/><path d="m47.6 87.4c-6.8 3.2-15.8-.4-22 6.4-1.3 1.5-5.8.1-9.4-.9-4.5-1.4-9.3-2.8-12.7-.8-1.8 1.1-3 2.8-3.4 4.9-.1.3-1.2 11 7.7 15.2 3.2 1.5 4 4 5.1 7.8 3 10.8 3.6 3.8 6 14.7 1.2 5.2 2.8 12.4 10 12.4 1.9 0 3.9-.2 5.9-.3 8.1-.7 11.8-.5 12.9 4.2.5 2.7.5 5.5 0 8.2-.6 4.4-1.3 9.3 5.5 13 4.8 2.6 4.3 4.3 3 8.8-.7 2.6-1.3 5.3-1.7 8-1.4 7.4-3.5 18.6 3.1 22.8 5.5 3.5 12.6-2.6 10.2-9.1-.3-.6-.4-1.3-.2-1.9 1.7-2.8 7.2-4.2 9.7-9.5 2-4.4 3.4-6.2 3.4-10.2.1-.6 1.8-2.2 2.8-3.3 2.8-2.8 6.7-6.7 6.7-11.8.1-2.2-.7-4.3-2.3-5.8 1.2-4.4.5-9.1-2.1-12.9 3.9-6.2 9-11.4 15-15.4-2.3 3.5-3.3 7.6-3 11.8.7 7.9 6.9 14.6 14.1 15.2.8.1 1.6.1 2.4.1 3.6 0 5.3.1 5.3 3.6.1 5.4.5 10.8 1.4 16.1.8 4.7 2.4 11.3 7.6 14 1.8 1.1 4.1 1.1 6 .2 3.9-2.1 2.6-6.9 10.6-12.5 2.2-1.5 4.8-3.4 5.6-6.8.3-1.8.2-3.7-.3-5.4-.3-1.1-.4-2.2-.3-3.3.4-1.7 2-2.6 4.8-3.9.7-.3 1.4-.7 2.1-1 2.3-1.2 3.4-3.3 3-5.3-.2-.9-.7-1.7-1.3-2.4l-2.6-3c1-.4 2-.8 2.9-1.4 2.6 1.6 5.6 2.4 8.6 2.3.3 1.4.6 2.9 1.1 4.3 1 3.2 2.9 4.3 6 4.2 1.9.1 3.9-.3 5.6-1.1 2.4-1.2 3.9-3.8 3.7-6.5-.2-2-1.4-3.1-.9-3.9 1-1.8 2.9-.2 3.5 1.7.5 1.9.6 3.8.3 5.8-.3 1.5-.1 3.1.6 4.5 1.1 2 2.5 1.9 5 4.1-6.6 6-7 16.1-1.1 22.7 3 3.4 7.4 5.3 11.9 5.3.4 0 .8 0 1.2-.1-.3 1.8.3 3.6 1.4 5 1.2 1.3 1.7 5.4 5 6 2.2.3 3.9-1.3 5.1-2.5 2.4-2.7 6.8-.1 9 2.3 3.7 4 11.8 3 11.8-2.8 0-1.9 4.4-5.6 3.4-9.5-.4-1.4-1.3-2.5-2.6-3.1-1-.5-1.8-1.2-2.4-2.2-2-3.2-6.2-4.3-9.5-2.5-1 .5-2.3-1.4-3-2.6-.7-1.3-1.8-2.1-3.2-2.4h-.1c.8-7.5-3.7-14.5-10.8-16.9-.7-1-.6-2.3.1-3.3 1.3-1.7 2.4-3.5 3.1-5.6 1.6-4.1 3.7-9.7 1.5-15.2-.3-.5-.3-1.1 0-1.7 0 0 0 0 0-.1.4.1.9.1 1.3.3 1.4.5 2.9.5 4.3.2 4.1-1.3 4.2-6.2 5.7-8 .8-.7 1.7-1.2 2.7-1.4 4-1.5 5.6-3 8.8-6.7 2-2.3 4-4.5 6.3-4.9 3.2-.6 9.4 1.7 12.5-3.2 2.1-3.4 1.3-7.8-1.9-10.2-5.2-3.9-10.6-1.7-14.9-2-2.9-.1-5.9-1.4-8.9-2.7-3.7-1.6-7.5-3.2-11.8-3.1-2.8.1-5.3.9-7.6 1.2-5.9.7-12.4-1.7-19.2-.8-10.2 1.3-17 8.5-25.8 2-4.1-7.9-13.7-10.9-21.6-6.9-.5.2-.9.5-1.3.8-19.1-17.2-47-20.4-69.5-7.9-3.5.2-5.8.9-6.9 2.7-.4.7-.6 1.4-.6 2.2-2.2 1.7-4.3 3.5-6.3 5.5-3.2-3.9-6.1-6.2-11.1-3.8zm103.9 57.6c-1.4 0-2.5 1.2-2.5 2.5 0 .6.2 1.2.6 1.6l5.3 6.2c-.1.1-.2.1-.2.1-.6.3-1.2.6-1.8.9-2.9 1.4-6.6 3.1-7.5 7.3-.3 1.8-.2 3.7.3 5.4.3 1.1.4 2.2.3 3.3-.3 1.5-1.9 2.6-3.6 3.8-8.3 5.9-8.8 11.5-10.1 12.2-.5.1-.9 0-1.3-.3-2.4-1.3-4.1-4.6-5-10.3-.8-5.1-1.2-10.2-1.3-15.4 0-1-.1-2.1-.4-3-1.7-5.5-6.6-5.5-9.9-5.5-.7 0-1.4 0-2.1-.1-4.8-.4-9-5.2-9.5-10.6-.6-6.7 4.2-14.5 12.8-14.5 9.7 0 14.9 7.1 20.5 7.9 5.1.5 9.7-3.2 10.3-8.3.1-.8.1-1.5 0-2.3 2 .7 4 1.5 6 2.5-2 5.4-1 11.4 2.7 15.8-1.1.5-2.3.8-3.6.8zm-31.6-21c2.2-.4 4.4-.7 6.6-.8 3 2.8 6.5 1.3 9.9.3 1.3.2 2.7.4 4 .7 3 3.2-.1 7.8-3.4 7.4-1.6-.2-3.3-1.4-4.8-2.4-3.8-2.5-7.9-4.2-12.3-5.2zm49.4 20.9c-6 1.1-11.7-2.9-12.8-8.9-.3-1.7-.2-3.4.3-5 .8.5 1.6 1.1 2.4 1.6-.8 4.5 2.2 8.8 6.7 9.6 4.4.8 8.6-2 9.6-6.4.9-.4 1.9-.8 2.9-1-.5 8.7-9 10-9.1 10.1zm-1.8-19.2c-2.2 0-4.3.9-5.8 2.4-.8-.5-1.5-1-2.3-1.5 4.1-4.5 11.1-4.9 15.6-.8 1.2 1.1 2.2 2.5 2.8 4-.9.2-1.8.5-2.7.8-1.4-3-4.3-4.9-7.6-4.9zm3.3 8.3c0 1.8-1.5 3.3-3.3 3.3s-3.3-1.5-3.3-3.3 1.5-3.3 3.3-3.3c1.8 0 3.3 1.5 3.3 3.3zm7.4 18.9c-1.4.5-2.8.6-4.3.6-.5-1.4-.9-2.9-1.2-4.3 2.1-.7 4-1.9 5.6-3.4-.4 1.5-.2 3.2.5 4.6.2.3.3.7.4 1 0 .7-.4 1.3-1 1.5zm13.9 3.7c-.1-.5-.1-1.1 0-1.6.4-2.6.2-5.3-.5-7.9-1.1-3.3-3.8-5.7-6.7-5.9-1.2-.1-2.4.2-3.4.8 1.3-2.3 2-4.9 2.1-7.6 1.8.2 3.6.7 5.2 1.5 4.5 2.1 7.7 6.4 8.5 11.3l2.1 12.4c-.8.2-1.6.5-2.4.8-1.5-1.5-3.1-2.8-4.9-3.8zm25.1 26.7c.5-.5 1.1-1 1.5-1.3 3.8 6 7.6 5.1 9.5 4.1 1-.6 2.2-.3 2.9.7 1 1.7 2.5 3 4.3 3.9 0 0 .1.1.1.1-.4 1.7-3.6 4.9-3.6 8.1v.1c-.3.2-.7.2-1 .2-.8 0-1.5-.3-2.1-.8-4.5-4.9-11.8-7.4-16.4-2.3-.2.2-.3.3-.4.5-.5-1.4-1.3-2.7-2.2-3.9-.3-.3-.3-1.5.4-3.1 3-1.4 5.4-3.6 7-6.3zm-2.6-8.3c0 6.1-4.9 11.1-11 11.1s-11.1-4.9-11.1-11c0-4.8 3.1-9.1 7.8-10.6l.5 2.7c-4.3 1.6-6.5 6.3-5 10.7 1.6 4.3 6.3 6.5 10.7 5 4.3-1.6 6.5-6.3 5-10.7-.9-2.5-3-4.5-5.6-5.2l-.5-2.9c5.2.8 9.2 5.5 9.2 10.9zm-11.1-3.3c1.8 0 3.3 1.5 3.3 3.3s-1.5 3.3-3.3 3.3-3.3-1.5-3.3-3.3 1.5-3.3 3.3-3.3zm-61.8-76.3c.6.7 1.3 1.4 1.9 2.1-2.5 3.8-1.5 9 2.4 11.5 3.8 2.5 9 1.5 11.5-2.4 2.5-3.8 1.5-9-2.4-11.5-2.3-1.5-5.1-1.8-7.7-.8-.6-.7-1.3-1.4-1.9-2.1 1.5-.8 3.3-1.2 5-1.2 6.1 0 11.1 4.9 11.1 11.1s-4.9 11.1-11.1 11.1c-6.1 0-11.1-4.9-11.1-11.1 0-2.4.8-4.8 2.3-6.7zm5.5 6.6c0-1.8 1.5-3.3 3.3-3.3s3.3 1.5 3.3 3.3-1.5 3.3-3.3 3.3-3.3-1.5-3.3-3.3zm3.3 16.1c8.9 0 16.1-7.2 16.1-16.1 0-.2 0-.5 0-.7 9.2 3.5 16.8-2.7 24.6-3.7 5.9-.7 12.4 1.7 19.2.8 2.4-.3 5-1.1 7.1-1.2 3.2-.1 6.3 1.3 9.7 2.7s6.8 2.9 10.7 3.1c4.7.2 8.8-1.5 12.1 1 1.1.9 1.3 2.3.7 3.5-1.1 1.7-5.5.3-9.1.9-4 .7-6.7 3.8-9.1 6.5-3.1 3.5-4 4.3-6.8 5.3-1.8.5-3.5 1.5-4.8 2.9-1.9 2.3-2.5 6.2-3.4 6.4-.5 0-1.1-.1-1.6-.3-1.6-.4-4.7-1.2-6.7 1.8-1.2 1.9-1.4 4.3-.5 6.3 1.4 3.4.2 7.1-1.5 11.5-.5 1.5-1.2 2.8-2.2 4.1-.5.6-1 1.3-1.3 2.1l-1.5-9c-1.1-6.5-5.3-12.1-11.2-14.9-2.5-1.2-5.3-1.9-8.1-2.1-2.6-8.5-11.5-13.3-20-10.7-3.1 1-5.9 2.8-7.9 5.4-3.9-1.9-8-3.4-12.2-4.4-1.2-.9-2.5-1.4-4-1.4-.9 0-1.8.1-2.7.3-1.9-.2-3.7-.3-5.6-.4.4-.9.9-1.8 1.5-2.7 1.1-1.7 1.1-3.9 0-5.6-1.8-2.9-4.6-2.3-6.8-1.9-1.7.3-4.6.8-5.2.1-.4-.5-.5-1-.4-1.6.3-2.9 2.4-2.4 4.2-4.7.7-1.1 1.3-2.4 1.6-3.7.7-1.5 2.2-2.4 3.8-2.4 2.3.1 4.2 1.6 5.6 3.1-1.8 8.7 3.8 17.2 12.5 19 1 .6 2.1.7 3.2.7zm-76.8-32.6c6.1 0 14.9 1.3 19.8.9.6-.1 1.3-.1 1.9.1-.1 1.4-2.4 4.8-3 5.9-1.2 1.9-5.2 3.7-7.5 3.4-.7-.7-1.3-1.4-1.7-2.3-1.2-2-3-4.9-6.2-4.9-.4 0-.9 0-1.3.1-1.3.3-3.1-.7-4.4-1.8.8-.4 1.6-.9 2.4-1.4zm-6.5 4.4c1.8 1.8 5.5 4.6 9.6 3.7.5-.1 1.3 1 2.2 2.5 1.2 1.9 2.6 4.2 5.3 4.6 4.3.6 10.2-2.1 12.4-5.7 2-3.2 5.1-7.7 3.1-11.1-1.1-1.9-3.4-2.7-6.6-2.4-3.2.1-6.5 0-9.7-.4 18.8-6.6 39.7-2.4 54.7 10.8-.5.6-.9 1.3-1.3 1.9-2.1-1.8-4.7-2.9-7.4-3.1-3.7-.1-7.2 2-8.6 5.5-.3.9-.6 1.7-.9 2.6-.6.5-1.3.9-2 1.4-1.8 1.4-3 3.6-3.2 5.9-.2 2 .4 4 1.8 5.5 2.8 3 7.6 1.6 11.4 1.1 0 .3-2 2.7-2.6 5.7-17.3 1.4-33.1 10.6-42.7 25.1-2.6-2.1-5.8-3.3-9.2-3.4-.3-.6-.7-11.9-11.9-17.6.3-1.6.3-3.3 0-4.9 1.4-2.7 3.2-3.2 5.7-3.9 2.2-.6 4.6-1.3 6.7-3.7 2.2-2.4 2.8-5.8 1.4-8.8-1.8-4.2-6.6-7-11.7-7-.3 0-.6 0-.8-.1 1.2-1.5 2.7-2.9 4.3-4.2zm-22 21.8c-4.6.1-8.2 4-8 8.6s4 8.2 8.6 8c2.6-.1 4.9-1.3 6.4-3.4 1 .1 2 .2 3 .4-3 5.3-9.7 7.3-15 4.3s-7.3-9.7-4.3-15c1.9-3.5 5.7-5.7 9.7-5.7h.8c-.4 1-.8 1.9-1.2 2.8zm3.6 8.3c0 1.8-1.5 3.3-3.3 3.3s-3.3-1.5-3.3-3.3 1.5-3.3 3.3-3.3 3.3 1.5 3.3 3.3zm1.3-6.9c.3-.9.7-1.7 1.1-2.6 3.5 2.1 5.6 5.9 5.4 10-.9-.2-1.8-.4-2.7-.5-.1-2.8-1.5-5.4-3.8-6.9zm9.7 14.1c7.9 4.6 8.2 12.8 8.4 13.3-3.5 1-6.6 3.1-8.7 6-.6-3.3.7-6.1-7.4-12 3.4-1.4 6.1-4 7.7-7.3zm9.4 18.3.5 2.7c-4.3 1.6-6.5 6.3-4.9 10.7 1.6 4.3 6.3 6.5 10.7 4.9 2.9-1.1 5-3.6 5.4-6.7l2.3-4.6c1.9 5.8-1.2 12.1-7 14s-12.1-1.2-14-7c-.4-1.1-.6-2.3-.6-3.5-.1-4.8 3-9.1 7.6-10.5zm6.6 10.5c0 1.8-1.5 3.3-3.3 3.3s-3.3-1.5-3.3-3.3 1.5-3.3 3.3-3.3c1.8 0 3.3 1.5 3.3 3.3zm-1.6-10.9c2.1.3 4.1 1.2 5.7 2.7-.3.6-.7 1.3-1 1.9l-.3.6c-1-1.1-2.4-1.9-3.8-2.3zm-15.2-47.1c1.4.8 2.9 1.1 4.5 1.1 3.5 0 6.3 2 7.2 4 .6 1.1.4 2.5-.5 3.4-1.2 1.3-2.6 1.7-4.5 2.2-2.3.5-4.5 1.6-6.3 3.2-1.4-2.4-3.5-4.4-5.9-5.8 1.5-2.9 3.4-5.6 5.5-8.1zm-3.8-3.3c-2.5 3-4.7 6.2-6.5 9.5-1-.2-2.1-.3-3.2-.3-8.9 0-16.1 7.2-16.1 16.1s7.2 16.1 16.1 16.1h.4c.7.7 1.5 1.3 2.3 1.9 10.7 7.4 2.9 7.3 8.7 14.2-.3 1.3-.5 2.6-.5 3.9 0 8.9 7.2 16.1 16.1 16.1 5 0 9.8-2.3 12.8-6.3.1 3.3-2.8 6.1-5.2 8.5-2.3 2.3-4.3 4.3-4.3 6.8 0 2.8-.8 3.6-2.9 8.2-1.7 3.8-6.9 4.9-9.4 9-.7 1.2-1.4 3.3-.3 6.3.7 2.1-1.3 4.1-2.8 3.1-3.7-2.4-1.9-11.9-.9-17.6.4-2.6.9-5.1 1.6-7.6 1.3-4.7 2.8-10.1-5.4-14.6-3.7-2-3.5-3.8-2.9-8 .6-3.3.6-6.7-.1-10-2-8.7-9.5-8.8-18.2-8-1.8.2-3.7.3-5.4.3-2.9 0-3.9-2.7-5.1-8.5-2.6-11.9-3.6-6-6.1-14.9-1-3.8-2.4-8.5-7.8-11-5.2-2.4-5-8.8-4.9-10 .1-.5.4-1 .9-1.3 1.6-.9 5.6.3 8.8 1.3 5.2 1.5 11.1 3.3 14.6-.5 4.3-4.7 12.6-1.5 20.4-5.2 2.3-1.5 2.8-.3 5.3 2.5z"/><path d="m178 80.7c0 1.4 1.1 2.5 2.5 2.5s2.5-1.1 2.5-2.5v-4c0-1.4-1.1-2.5-2.5-2.5s-2.5 1.1-2.5 2.5z"/><path d="m187.2 76.7v4c0 1.4 1.1 2.5 2.5 2.5s2.5-1.1 2.5-2.5v-4c0-1.4-1.1-2.5-2.5-2.5s-2.5 1.1-2.5 2.5z"/><path d="m196.4 76.7v4c0 1.4 1.1 2.5 2.5 2.5s2.5-1.1 2.5-2.5v-4c0-1.4-1.1-2.5-2.5-2.5s-2.5 1.1-2.5 2.5z"/><path d="m210.6 80.7v-4c0-1.4-1.1-2.5-2.5-2.5s-2.5 1.1-2.5 2.5v4c0 1.4 1.1 2.5 2.5 2.5s2.5-1.2 2.5-2.5z"/><path d="m219.8 80.7v-4c0-1.4-1.1-2.5-2.5-2.5s-2.5 1.1-2.5 2.5v4c0 1.4 1.1 2.5 2.5 2.5s2.5-1.2 2.5-2.5z"/><path d="m229 80.7v-4c0-1.4-1.1-2.5-2.5-2.5s-2.5 1.1-2.5 2.5v4c0 1.4 1.1 2.5 2.5 2.5s2.5-1.2 2.5-2.5z"/><path d="m198.5 64.5h-18c-1.4 0-2.5 1.1-2.5 2.5s1.1 2.5 2.5 2.5h18c1.4 0 2.5-1.1 2.5-2.5s-1.1-2.5-2.5-2.5z"/><path d="m91 212.7c0 1.4 1.1 2.5 2.5 2.5s2.5-1.1 2.5-2.5v-4c0-1.4-1.1-2.5-2.5-2.5s-2.5 1.1-2.5 2.5z"/><path d="m100.2 208.7v4c0 1.4 1.1 2.5 2.5 2.5s2.5-1.1 2.5-2.5v-4c0-1.4-1.1-2.5-2.5-2.5s-2.5 1.1-2.5 2.5z"/><path d="m109.4 208.7v4c0 1.4 1.1 2.5 2.5 2.5s2.5-1.1 2.5-2.5v-4c0-1.4-1.1-2.5-2.5-2.5s-2.5 1.1-2.5 2.5z"/><path d="m123.6 212.7v-4c0-1.4-1.1-2.5-2.5-2.5s-2.5 1.1-2.5 2.5v4c0 1.4 1.1 2.5 2.5 2.5s2.5-1.2 2.5-2.5z"/><path d="m132.8 212.7v-4c0-1.4-1.1-2.5-2.5-2.5s-2.5 1.1-2.5 2.5v4c0 1.4 1.1 2.5 2.5 2.5s2.5-1.2 2.5-2.5z"/><path d="m142 212.7v-4c0-1.4-1.1-2.5-2.5-2.5s-2.5 1.1-2.5 2.5v4c0 1.4 1.1 2.5 2.5 2.5s2.5-1.2 2.5-2.5z"/><path d="m111.5 196.5h-18c-1.4 0-2.5 1.1-2.5 2.5s1.1 2.5 2.5 2.5h18c1.4 0 2.5-1.1 2.5-2.5s-1.1-2.5-2.5-2.5z"/></g></g></svg>