<svg id="Layer_1" enable-background="new 0 0 256 256" height="512" viewBox="0 0 256 256" width="512" xmlns="http://www.w3.org/2000/svg"><g id="Layer_79"><g><g fill="#f2ba94"><path d="m147.7 77.9v10c0 1.9-.1 3.8-.4 5.6.5.1 1.1.1 1.6.1 8.2 0 14.9-6.7 14.9-14.9 0-1.6-.3-3.2-.8-4.7-4.9 1.8-10.1 3-15.3 3.9z"/><path d="m111.3 80.9c-12.4.1-24.8-1-37-3.1v10.2c0 20.2 16.5 40.7 36.7 40.7s36.7-20.5 36.7-40.7v-10c-12 2-24.2 3-36.4 2.9z"/><path d="m74.3 77.8c-5.2-.9-10.3-2.2-15.3-3.9-2.7 7.8 1.4 16.2 9.1 18.9 1.6.6 3.2.8 4.9.8.5 0 1.1 0 1.6-.1-.3-1.9-.4-3.7-.4-5.6v-10.1z"/><path d="m87.6 137.7c1.7 1 3.2 2.4 4.3 4.1l6 8.9h26.9l6-8.9c1.1-1.7 2.6-3.1 4.4-4.2-.1 0-.2-.1-.3-.1-1-.4-1.9-.9-2.8-1.5-5.1-3.5-3.2-9.4-3.6-12.7-10.8 6.9-23.1 7.1-34 .4-.4 3.1 1.5 8.8-3.6 12.3-.5.3-1.7.9-3.3 1.7z"/></g><path d="m152.8 47.9c.6 2.3 1 4.7 1.2 7 0 6.5-19.1 11.8-42.7 11.8s-42.6-5.2-42.6-11.7c.2-2.4.6-4.7 1.2-7-15.4 3.4-25.3 8.6-25.3 14.5 0 10.2 29.9 18.5 66.7 18.5s66.7-8.3 66.7-18.5c.1-5.9-9.8-11.2-25.2-14.6z" fill="#29589f"/><path d="m141.9 12.8c-3.4-8.8-12.7-12.6-20.7-8.9-3.1 1.5-6.5 2.3-9.9 2.3s-6.8-.8-9.9-2.3c-8-3.7-17.2.1-20.7 8.9-7.4 19.3-12 39-12 42.2 0 6.5 19.1 11.8 42.7 11.8s42.6-5.3 42.6-11.8c0-3.2-4.6-22.9-12.1-42.2z" fill="#29589f"/><path d="m220.5 242.8h-135.9c-1.5 0-2.8 1.2-2.8 2.8 0 4.4 3.6 7.9 7.9 7.9h125.4c4.4 0 7.9-3.6 7.9-7.9.2-1.6-1-2.8-2.5-2.8z" fill="#c7d7e5"/><path d="m212 150.7h-118.9c-3.7 0-6.7 3-6.8 6.8v78.8.5c.3 3.4 3.2 6 6.7 6h119c3.4 0 6.3-2.5 6.7-6 0-.2 0-.3 0-.5v-78.8c0-3.7-3-6.8-6.7-6.8z" fill="#edf4fc"/><path d="m86.4 236.8c0-.2 0-.3 0-.5v-75.9l-27.6-10.9c-.8-.3-1.4-.9-1.7-1.7l-8.6 2.2c-6.2 1.6-10.6 7-11 13.3l-4.7 72.9c-.2 3.4 2.3 6.3 5.7 6.5h.4 54.2c-3.5.1-6.4-2.4-6.7-5.9z" fill="#29589f"/><path d="m160.9 150.7 3-1.2c1.6-.6 2.4-2.4 1.7-4-.3-.8-.9-1.4-1.7-1.7l-16.5-7c-6.1-2.6-13.1-.5-16.7 5l-6 8.9z" fill="#5290db"/><path d="m86.4 157.5c0-3.7 3-6.7 6.8-6.8h4.8l-6-8.9c-3.7-5.5-10.7-7.6-16.7-5l-16.5 7c-1.6.7-2.3 2.5-1.6 4 .3.8.9 1.4 1.7 1.7l27.6 10.9v-2.9z" fill="#5290db"/><path d="m134.8 137.5c-1-.4-1.9-.9-2.8-1.5-.1-.1-.3-.2-.4-.3-12.3 8.1-28.3 8.2-40.7.2 0 0-.1.1-.1.1-.4.3-1.6.9-3.1 1.7 1.7 1 3.2 2.4 4.3 4.1l6 8.9h26.9l6-8.9c1.1-1.7 2.6-3.1 4.4-4.2-.3 0-.4 0-.5-.1z" fill="#29589f"/><path d="m168.3 199.4c-.6-1.1-.9-2.4-.7-3.6 1.5-8.3-4-16.3-12.3-17.9-8.3-1.5-16.3 4-17.9 12.3-.3 1.8-.3 3.7 0 5.5.2 1.3 0 2.5-.7 3.6-1.4 2.6-.5 5.9 2.1 7.4.1.1.3.1.4.2 1.2.5 2.1 1.6 2.4 2.8v.1c.4 1.9 2.1 3.2 4 3.2h13.6c1.9 0 3.6-1.3 4-3.2.3-1.3 1.2-2.4 2.5-2.9 2.8-1.2 4-4.4 2.8-7.1 0-.1-.1-.2-.2-.4z" fill="#fc657e"/><path d="m160.3 213.1h-15.4c-1.2 0-2.1 1-2.1 2.1 0 3.4 2.7 6.1 6.1 6.1h7.4c3.4 0 6.1-2.7 6.1-6.1 0-1.2-.9-2.1-2.1-2.1z" fill="#fc657e"/><path d="m111.3 53.5c-19.2 0-35.4-3.5-40.8-8.3-.9 3.2-1.5 6.5-1.9 9.8 0 6.5 19.1 11.8 42.7 11.8s42.7-5.3 42.7-11.8c-.4-3.3-1-6.6-1.9-9.8-5.3 4.8-21.6 8.3-40.8 8.3z" fill="#5290db"/><path d="m159.7 194.4c-2.1 0-3.7 1.7-3.7 3.7v1.8c0 1.6 1.3 3 3 3h.8c2.1 0 3.7-1.7 3.7-3.7v-1c0-2.1-1.7-3.8-3.8-3.8z" fill="#ef4460"/><path d="m145.5 194.4c2.1 0 3.7 1.7 3.7 3.7v1.8c0 1.6-1.3 3-3 3h-.8c-2.1 0-3.7-1.7-3.7-3.7v-1c.1-2.1 1.8-3.8 3.8-3.8z" fill="#ef4460"/><path d="m182.3 42.2c4 .7 7.1 3.8 7.9 7.7 0 .1.1.2.2.1.1 0 .1-.1.1-.1.8-4 3.9-7 7.9-7.7.1 0 .2-.1.1-.2 0-.1-.1-.1-.1-.1-4-.7-7.1-3.8-7.9-7.7 0-.1-.1-.2-.2-.1-.1 0-.1.1-.1.1-.8 4-3.9 7-7.9 7.7-.1 0-.2.1-.1.2-.1.1 0 .1.1.1z" fill="#70d6f9"/><circle cx="169.5" cy="24" fill="#f5c84c" r="3"/><circle cx="219.5" cy="137" fill="#87d147" r="3"/><circle cx="36.5" cy="138" fill="#f5c84c" r="3"/><path d="m42.6 118.2h2.1v2.1c0 1.5 1.3 2.8 2.8 2.8s2.8-1.3 2.8-2.8v-2.1h2.1c1.5 0 2.8-1.3 2.8-2.8s-1.3-2.8-2.8-2.8h-2.1v-2.1c0-1.5-1.3-2.8-2.8-2.8s-2.8 1.3-2.8 2.8v2.1h-2.1c-1.5 0-2.8 1.3-2.8 2.8 0 1.6 1.2 2.8 2.8 2.8z" fill="#ef4460"/><path d="m89.8 256h125.4c5.8 0 10.4-4.7 10.4-10.4 0-2.9-2.4-5.3-5.3-5.3h-.2c.6-1.2 1-2.6.9-4v-78.8c0-5.1-4.1-9.3-9.3-9.3h-43.8c.8-2.7-.6-5.6-3.2-6.7l-16.5-7c-4.3-1.8-9.2-1.7-13.4.3-4.9-2.4-4.2-4.5-4.2-10.3 9.5-6.9 16-17 18.4-28.4 9.6-.2 17.2-8.2 17-17.8 0-.9-.1-1.8-.3-2.7 8.9-3.4 14.6-7.8 14.6-13.2 0-4.9-4.5-11.7-25.7-16.6-2.8-11.5-6.4-22.9-10.6-33.9-4.1-10.4-15-14.5-24-10.3-5.6 2.8-12.1 2.8-17.7 0-9.1-4.2-20-.1-24 10.3-4.1 11.1-7.7 22.4-10.5 34-21.2 4.9-25.7 11.7-25.7 16.6 0 5.3 5.4 9.6 13.9 13-1.9 9.4 4.1 18.5 13.5 20.4 1 .2 2.1.3 3.1.3 2.4 11.3 9.3 22.4 19.1 28.9 0 3.6.6 6.7-2.4 8.8-.6.4-1.2.7-1.8 1-4.2-2.1-9.1-2.2-13.4-.3l-16.5 7c-1.8.8-3.1 2.5-3.3 4.4l-6.6 1.7c-7.2 1.8-12.5 8.1-12.9 15.6l-4.7 72.9c-.3 4.7 3.3 8.8 8 9.1h.5 40.5v.3c.3 5.7 5 10.4 10.7 10.4zm130.7-10.7c.1 0 .3.1.3.3 0 3-2.4 5.4-5.4 5.4h-125.6c-3 0-5.4-2.4-5.4-5.4 0-.1.1-.3.3-.3zm-8.5-92.1c2.3 0 4.3 1.9 4.3 4.3v78.8c-.1 2.3-1.9 4-4.2 4h-119c-2.3.1-4.1-1.7-4.2-4v-78.8c0-2.3 1.9-4.3 4.3-4.3zm-83-13.2c-.2.3.5-.8-5.5 8.2h-24.3l-5.2-7.7c11.1 5.3 24 5.1 35-.5zm-34.1-4.7c1.4-2.2 2.1-4.8 2-7.4 9.2 4.3 19.9 4.2 28.9-.3-.2 2.6.5 5.2 1.8 7.5-10.1 5.6-22.4 5.7-32.7.2zm36 10.8c1.1-1.3 2.2-4.3 5.5-6.3 3.1-1.8 6.8-2.1 10.1-.7l16.5 7c.3.1.4.5.3.7-.1.1-.2.3-.3.3l-2.6 1h-30.9zm19.2-55c.1-.8.1-2.1.1-3.2v-7.9c4-.8 7.7-1.7 11-2.7.8 6.8-4.1 13-10.9 13.8 0 0-.1 0-.2 0zm-67-77.3c3-7.6 10.7-10.6 17.3-7.6 6.9 3.4 15 3.4 21.9 0 6.6-3.1 14.3 0 17.3 7.6 3.8 9.9 7.1 20.1 9.7 30.4-5.4 3.5-19.4 6.8-38 6.8s-32.6-3.3-38-6.8c2.7-10.3 6-20.5 9.8-30.4zm-10.9 35.5c7.7 4.2 22.3 6.7 39.2 6.7s31.5-2.6 39.2-6.7c.4 1.9.8 3.8 1 5.7 0 3.2-14.2 9.3-40.2 9.3s-40.2-6.1-40.2-9.3c.2-1.9.5-3.8 1-5.7zm-11.5 29.5c0-.6 0-1.1.1-1.7 3.6 1.1 7.3 2 11 2.8v8.1c0 1 .1 2.3.1 3.2-6.3-.7-11.2-6-11.2-12.4zm-13.6-16.4c0-2.9 5.2-7.5 19.5-11.2-.3 1.2-.4 2.5-.5 3.7 0 9.4 22.7 14.3 45.2 14.3s45.2-4.9 45.2-14.3c-.1-1.2-.2-2.5-.5-3.7 14.3 3.7 19.5 8.2 19.5 11.2 0 6.9-20.8 11.7-28.3 13-11.9 2-23.9 3-35.9 3-35.9 0-64.2-8.3-64.2-16zm29.7 25.6v-7.2c11.4 1.8 23 2.7 34.6 2.6 11.3 0 22.7-.8 33.9-2.5v7c0 19.4-14.7 35.6-30.7 37.9-2.3.3-4.6.3-6.9 0-15.7-2-30.9-18-30.9-37.8zm-17.1 58.2 16.5-7c5-2.1 10.7-.4 13.7 4.1l3.4 5c-4.9-.1-8.9 3.7-9.3 8.5l-24.2-9.5c-.3-.1-.4-.5-.3-.7-.1-.3 0-.4.2-.4zm4.1 94.1v-41.8c0-1.4-1.1-2.5-2.5-2.5s-2.5 1.1-2.5 2.5v41.8h-19.9c-2 0-3.6-1.6-3.6-3.6 0-.1 0-.2 0-.2l4.7-73c.3-5.3 4-9.8 9.1-11l7-1.8c.5.5 1.1.9 1.8 1.1l26 10.3v74.2c0 1.4.3 2.7.9 4z"/><path d="m150.1 206.4v.8c0 1.4 1.1 2.5 2.5 2.5s2.5-1.1 2.5-2.5v-.8c0-1.4-1.1-2.5-2.5-2.5s-2.5 1.1-2.5 2.5z"/><path d="m205.6 87c0-4.5-3.2-8.2-7.1-8.2s-7.1 3.7-7.1 8.2 3.2 8.2 7.1 8.2 7.1-3.7 7.1-8.2zm-7 3.2c-1 0-2.1-1.3-2.1-3.2s1.1-3.2 2.1-3.2 2.1 1.3 2.1 3.2-1.1 3.2-2.1 3.2z"/><path d="m214 95.2c1.4 0 2.5-1.1 2.5-2.5v-11.5c0-1.4-1.1-2.5-2.5-2.5h-3.4c-1.4 0-2.5 1.1-2.5 2.5s1.1 2.5 2.5 2.5h.9v8.9c0 1.5 1.1 2.6 2.5 2.6z"/><path d="m184.3 139.8c1.4 0 2.5-1.1 2.5-2.5v-11.4c0-1.4-1.1-2.5-2.5-2.5h-3.4c-1.4 0-2.5 1.1-2.5 2.5s1.1 2.5 2.5 2.5h.9v8.9c0 1.4 1.1 2.5 2.5 2.5z"/><path d="m198.6 139.8c3.9 0 7.1-3.7 7.1-8.2s-3.2-8.2-7.1-8.2-7.1 3.7-7.1 8.2c0 4.6 3.2 8.2 7.1 8.2zm0-11.4c1 0 2.1 1.3 2.1 3.2s-1.1 3.2-2.1 3.2-2.1-1.3-2.1-3.2 1.1-3.2 2.1-3.2z"/><path d="m191.5 109.3c0-4.5-3.2-8.2-7.1-8.2s-7.1 3.7-7.1 8.2 3.2 8.2 7.1 8.2 7.1-3.7 7.1-8.2zm-7.1 3.2c-1 0-2.1-1.3-2.1-3.2s1.1-3.2 2.1-3.2 2.1 1.3 2.1 3.2-1.1 3.2-2.1 3.2z"/><path d="m199.8 117.5c1.4 0 2.5-1.1 2.5-2.5v-11.4c0-1.4-1.1-2.5-2.5-2.5h-3.4c-1.4 0-2.5 1.1-2.5 2.5s1.1 2.5 2.5 2.5h.9v8.9c0 1.4 1.2 2.5 2.5 2.5z"/><path d="m214.1 117.5c3.9 0 7.1-3.7 7.1-8.2s-3.2-8.2-7.1-8.2-7.1 3.7-7.1 8.2 3.2 8.2 7.1 8.2zm0-11.4c1 0 2.1 1.3 2.1 3.2s-1.1 3.2-2.1 3.2-2.1-1.3-2.1-3.2 1.2-3.2 2.1-3.2z"/><path d="m170.1 117.5c1.4 0 2.5-1.1 2.5-2.5v-11.4c0-1.4-1.1-2.5-2.5-2.5h-3.4c-1.4 0-2.5 1.1-2.5 2.5s1.1 2.5 2.5 2.5h.9v8.9c0 1.4 1.1 2.5 2.5 2.5z"/><path d="m126.7 104.6c.8-1.1.5-2.7-.6-3.5s-2.7-.5-3.5.6v.1c-4 6-12.2 7.6-18.1 3.5-1.4-.9-2.6-2.1-3.5-3.5-.8-1.2-2.3-1.5-3.5-.7s-1.5 2.3-.7 3.5v.1c5.6 8.3 16.8 10.5 25.1 4.9 1.9-1.4 3.5-3.1 4.8-5z"/><path d="m140.3 180c-.5.4-.9.9-1.3 1.4l-5.4-5.4c-1-1-2.5-1-3.5 0s-1 2.5 0 3.5l6.2 6.2c-1.5 3.3-1.9 7-1.3 10.5.1.7-.1 1.4-.4 2-2.1 3.8-.7 8.7 3.1 10.8.2.1.3.2.5.3l-8.1 8.1c-1 1-1 2.5 0 3.5s2.5 1 3.5 0l6.8-6.8c-.1.4-.2.8-.2 1.1 0 4.7 3.9 8.6 8.6 8.6h7.4c4.8 0 8.6-3.9 8.6-8.6 0-.3 0-.6-.1-.9l6.6 6.6c1 1 2.5 1 3.5 0s1-2.5 0-3.5l-8.1-8.1c4-1.8 5.7-6.5 3.9-10.5-.1-.2-.2-.4-.3-.5-.4-.6-.5-1.3-.4-2 .7-3.6.2-7.2-1.3-10.5l6.2-6.2c1-1 1-2.5 0-3.5s-2.5-1-3.5 0l-5.4 5.4c-6.4-7.5-17.7-8.3-25.2-1.9 0 .1-.2.2-.4.4zm16 38.8h-7.4c-1.8 0-3.4-1.4-3.6-3.2h14.6c-.2 1.8-1.7 3.2-3.6 3.2zm9-27.2c.1 1.2.1 2.4-.1 3.6-1.6-3-5.4-4.1-8.4-2.5-2 1.1-3.2 3.2-3.2 5.5v1.8c0 3 2.4 5.5 5.5 5.5h.8c3.1 0 5.7-2.2 6.1-5.3.1.2.2.3.3.5.8 1.4.3 3.2-1.2 4-.1 0-.2.1-.3.1-2 .8-3.4 2.5-3.9 4.6-.2.7-.8 1.2-1.5 1.2h-13.6c-.8 0-1.4-.6-1.6-1.3-.5-2-1.9-3.7-3.8-4.6-1.5-.7-2.1-2.4-1.5-3.9 0-.1.1-.1.1-.2.1-.3.3-.5.4-.8.4 3.1 3 5.5 6.2 5.5h.8c3 0 5.5-2.4 5.5-5.5v-1.8c0-3.4-2.8-6.2-6.2-6.2-2.4 0-4.6 1.4-5.6 3.5v-.1c-.1-.8-.2-1.5-.2-2.3 0-7.1 5.7-12.8 12.8-12.8h.9c6 .6 11 5.3 11.7 11.5zm-4.3 6.6v1c0 .7-.5 1.2-1.2 1.2h-.8c-.3 0-.5-.2-.5-.5v-1.8c0-.7.5-1.2 1.2-1.2s1.3.6 1.3 1.3zm-16.7 1v-1c0-.7.5-1.2 1.2-1.2s1.2.5 1.2 1.2v1.8c0 .3-.2.5-.5.5h-.8c-.6-.1-1.1-.6-1.1-1.3z"/></g></g></svg>