<svg id="Layer_1" enable-background="new 0 0 256 256" height="512" viewBox="0 0 256 256" width="512" xmlns="http://www.w3.org/2000/svg"><g id="Layer_70"><g><path d="m233.5 36.8h-75.9c.2.4.4.8.6 1.2 4 9.4 7.4 19 10.1 28.8.1.5.3 1 .4 1.5l.1.2c.1.3.1.5.2.7 15.2 3 25 7.7 25 12.9 0 4.8-8.3 9.2-21.5 12.2h.1c-.2 9-2.2 32.3-19.8 32.3-5.9 0-13.6-4.5-21.8-11-1.7-1.3-4-1.3-5.7 0-8.2 6.5-16 11-21.8 11-17.6 0-19.7-23.3-19.8-32.3h.1c-13.2-3-21.5-7.3-21.5-12.2 0-5.2 9.8-9.9 25-12.9.1-.2.1-.5.2-.7l.1-.2c.1-.5.3-1 .4-1.5 2.7-9.8 6.1-19.4 10.1-28.8.2-.4.4-.8.6-1.2h-76.2c-6.6 0-12 5.4-12 12v140 .9c.6 6.1 5.8 10.7 11.9 10.6h211.2c6.1.1 11.3-4.5 11.9-10.6 0-.3 0-.6 0-.9v-140c0-6.7-5.4-12-12-12z" fill="#3a70bf"/><path d="m233.5 46.8h-71.8c2.9 7.6 5.1 14.7 6.6 20 .1.5.3 1 .4 1.5l.1.2c.1.3.1.5.2.7 15.2 3 25 7.7 25 12.9 0 4.8-8.3 9.2-21.5 12.2h.1c-.2 9-2.2 32.3-19.8 32.3-5.9 0-13.6-4.5-21.8-11-1.7-1.3-4-1.3-5.7 0-8.2 6.5-16 11-21.8 11-17.6 0-19.7-23.3-19.8-32.3h.1c-13.2-3-21.5-7.3-21.5-12.2 0-5.2 9.8-9.9 25-12.9.1-.2.1-.5.2-.7l.1-.2c.1-.5.3-1 .4-1.5 1.4-5.3 3.7-12.4 6.6-20h-72.1c-1.1 0-2 .9-2 2v140 .2c.2.8 1 1.4 1.9 1.3h211.2c.9.1 1.7-.5 1.9-1.4v-.1-140c0-1.1-.9-2-2-2z" fill="#fc657e"/><path d="m233.5 46.8h-71.8c1.4 3.7 2.6 7.2 3.7 10.5h70.1v-8.5c0-1.1-.9-2-2-2z" fill="#edf4fc"/><g fill="#f2ba94"><path d="m83.5 94.3c-2.8-.6-5.4-1.3-7.8-2.1-3.5 4.2-2.9 10.5 1.3 14 2.3 1.9 5.2 2.6 8.1 2.1-1-4.6-1.5-9.3-1.6-14z"/><path d="m172.4 94.3c0 4.7-.6 9.4-1.6 14 5.4.9 10.6-2.7 11.5-8.1.5-2.9-.3-5.8-2.1-8-2.3.7-4.9 1.5-7.8 2.1z"/><path d="m152.7 126.6c-5.9 0-13.6-4.5-21.8-11-1.7-1.3-4-1.3-5.7 0-8.2 6.5-16 11-21.8 11-6.8 0-11.3-3.5-14.3-8.4.8 6.9 2.6 13.6 5.3 20h14.8c2 0 3.8.7 5.3 2.1l13.6 12.4 13.6-12.4c1.4-1.3 3.3-2 5.3-2.1h14.8c2.7-6.4 4.5-13.1 5.3-20-3.1 4.8-7.6 8.4-14.4 8.4z"/></g><path d="m168.9 69.2c.6 2.1 1 4.2 1.2 6.3 0 5.8-18.9 10.5-42.1 10.5s-42.1-4.7-42.1-10.5c.2-2.1.6-4.2 1.2-6.3-15.2 3-25 7.7-25 12.9 0 9.1 29.5 16.5 65.9 16.5s65.9-7.4 65.9-16.5c0-5.2-9.8-9.9-25-12.9z" fill="#3a70bf"/><path d="m158.2 38c-3.5-7.8-12.6-11.4-20.4-8-6.2 2.8-13.3 2.8-19.5 0-7.8-3.4-16.9.2-20.4 8-7.4 17.1-12 34.7-12 37.5 0 5.8 18.9 10.5 42.1 10.5s42.1-4.7 42.1-10.5c0-2.9-4.5-20.4-11.9-37.5z" fill="#29589f"/><path d="m156.4 161.5c1.8 0 3.6.1 5.3.4l19.2-20.3c.7-.8.7-2-.1-2.8-.4-.3-.8-.5-1.3-.5h-32.6c-2 0-3.8.7-5.3 2.1l-13.6 12.3v8.8z" fill="#3a70bf"/><path d="m94.3 161.9c1.8-.2 3.5-.4 5.3-.4h28.4v-8.8l-13.6-12.4c-1.4-1.3-3.3-2-5.3-2.1h-32.6c-1.1 0-2 .9-2 2 0 .5.2 1 .5 1.3z" fill="#29589f"/><path d="m128 74.2c-18.9 0-35-3.1-40.3-7.4-.9 2.9-1.5 5.8-1.9 8.7 0 5.8 18.9 10.5 42.1 10.5s42.1-4.7 42.1-10.5c-.4-3-1-5.9-1.9-8.7-5.1 4.3-21.2 7.4-40.1 7.4z" fill="#5290db"/><path d="m128 98.6c-17.1 0-32.8-1.6-44.5-4.3.2 9 2.2 32.3 19.8 32.3 5.9 0 13.6-4.5 21.8-11 1.7-1.3 4-1.3 5.7 0 8.2 6.5 16 11 21.8 11 17.6 0 19.6-23.3 19.8-32.3-11.6 2.7-27.3 4.3-44.4 4.3z" fill="#fc657e"/><path d="m113.7 109.5-18.3-6.3c-1-.3-2 .2-2.3 1.1-.2.5-.1 1 .1 1.4l2.4 5.1c2.6 5.4 9.1 7.7 14.5 5.1 1-.5 1.9-1.1 2.7-1.9l1.5-1.4c.7-.7.8-1.8.1-2.6-.2-.3-.4-.4-.7-.5z" fill="#ef4460"/><path d="m142.3 109.5 18.3-6.3c1-.3 2 .2 2.3 1.1.2.5.1 1-.1 1.4l-2.4 5.1c-2.6 5.4-9.1 7.7-14.5 5.1-1-.5-1.9-1.1-2.7-1.9l-1.5-1.4c-.7-.7-.8-1.8-.1-2.6.2-.3.4-.4.7-.5z" fill="#ef4460"/><path d="m248.6 200.2h-241.2c-2.7 0-4.9 2.2-4.9 4.9 0 7.8 6.3 14.1 14.1 14.1h222.8c7.8 0 14.1-6.3 14.1-14.1 0-2.7-2.2-4.8-4.9-4.9z" fill="#edf4fc"/><path d="m94.3 46.8h-71.8c-1.1 0-2 .9-2 2v8.5h70.1c1.1-3.3 2.3-6.9 3.7-10.5z" fill="#edf4fc"/><path d="m36 46.8h-13.5c-1.1 0-2 .9-2 2v8.5h15.5z" fill="#9be5f9"/><path d="m84 200.2v1.7c0 3.7 3 6.8 6.8 6.8h75.4c3.7 0 6.8-3 6.8-6.8v-1.7z" fill="#c7d7e5"/><path d="m66.6 21.9c-4-.7-7.1-3.8-7.9-7.7 0-.1-.1-.2-.2-.1-.1 0-.1.1-.1.1-.8 4-3.9 7-7.9 7.7-.1 0-.2.1-.1.2 0 .1.1.1.1.1 4 .7 7.1 3.8 7.9 7.7 0 .1.1.2.2.1.1 0 .1-.1.1-.1.8-4 3.9-7 7.9-7.7.1 0 .2-.1.1-.2 0 0 0-.1-.1-.1z" fill="#f5c84c"/><circle cx="105.7" cy="233.6" fill="#87d147" r="3"/><circle cx="88.7" cy="10.6" fill="#ef4460" r="3"/><circle cx="202.7" cy="21.6" fill="#70d6f9" r="3"/><path d="m141.3 237.9h-2.1v-2.1c0-1.5-1.3-2.8-2.8-2.8s-2.8 1.3-2.8 2.8v2.1h-2.1c-1.5 0-2.8 1.3-2.8 2.8s1.3 2.8 2.8 2.8h2.1v2.1c0 1.5 1.3 2.8 2.8 2.8s2.8-1.3 2.8-2.8v-2.1h2.1c1.5 0 2.8-1.3 2.8-2.8s-1.3-2.8-2.8-2.8z" fill="#ef4460"/><path d="m195.1 190.2c-5.2-17-20.9-28.7-38.7-28.8h-56.8c-17.8.1-33.5 11.7-38.7 28.8z" fill="#29589f"/><path d="m16.6 221.8h222.8c9.2 0 16.6-7.4 16.6-16.6 0-4.1-3.3-7.4-7.4-7.4h-4c2.2-2.5 3.4-5.7 3.4-9v-140c0-8-6.5-14.5-14.5-14.5h-74.5c-4.9-7.2-14.2-9.9-22.2-6.5-5.6 2.5-12 2.5-17.6 0-8-3.4-17.3-.6-22.2 6.5h-74.5c-8 0-14.5 6.5-14.5 14.5v140c0 3.3 1.2 6.5 3.4 9h-4c-4.1 0-7.4 3.3-7.4 7.4 0 9.1 7.4 16.5 16.6 16.6zm84-183.9c3.3-5.8 10.5-8.3 16.6-5.6 6.8 3 14.6 3 21.5 0 6.2-2.6 13.3-.2 16.6 5.6 1.3 2.3 6.5 15.3 10 27.8-5.5 3.1-19.2 6-37.4 6s-31.9-2.9-37.4-6c1.8-5.9 7.4-22.7 10.1-27.8zm-64.6 21.9h51.2c-.7 2.4-1.5 4.9-2.1 7.3-8.6 1.8-25.4 6.2-25.4 15 0 4.5 4.2 8.3 12.4 11.4-2.8 6.3.1 13.7 6.5 16.4 1.5.7 3.1 1 4.8 1 .8 2.8 1.9 5.4 3.3 7.9.7 5.7 2.1 11.4 4.1 16.8h-14.3c-2.5 0-4.5 2-4.5 4.5 0 1.1.4 2.2 1.2 3.1l16.1 17c-14 3.5-25.4 13.8-30.3 27.5h-36v-128h13zm-13-5v-5.5h10.5v5.5zm149.2 17.7c4.5 1.1 20.2 5.5 19.1 10-.8 3.3-8.6 6.3-11.9 7.3-14.8 4.8-35.8 6.3-51.5 6.3-14.1 0-51.2-2-61.8-11.4-.8-.6-1.4-1.6-1.6-2.6 0-4.5 14.7-8.6 19.2-9.6-.5 2.6-.8 4.4.9 6.6 6.3 8 33.1 9.5 43.3 9.5 10.3 0 37-1.5 43.3-9.5 1.8-2.2 1.6-4 1-6.6zm1.7 33.4c.6-3.2.9-6.4 1-9.6 1.5-.4 2.9-.8 4.3-1.2 1.9 3.7.3 8.2-3.4 10.1-.6.3-1.2.5-1.9.7zm-64.7 34.8c1.3 0 2.6.5 3.6 1.4l12.8 11.7v5.2h-26c-1.4 0-3 .1-4.4.2l-17.5-18.5zm-16.2-14.7c11 7.5 23.5-.4 33.7-8.5.8-.6 1.8-.6 2.6 0 10.2 8.1 22.7 16 33.7 8.5-.8 3.3-1.8 6.5-3.1 9.7h-13.1c-2.6 0-5.1 1-7 2.7l-3.3 3.1c-.5-.6-1.2-1-2-1h-13.2c-.8 0-1.5.4-2 1l-3.3-3.1c-1.9-1.7-4.4-2.7-7-2.7h-13c-1.2-3.1-2.3-6.4-3-9.7zm30.9 19.5h8.3l-4.1 3.8zm6.6 8.3 12.8-11.7c1-.9 2.3-1.4 3.6-1.4h31.4l-17.5 18.5c-1.3-.1-3-.2-4.4-.2h-25.9zm22.2-29.7c-8.2 0-19.7-10.3-21.6-11.3-2.4-1.2-5.4-.9-7.5.8-10.9 8.7-17 10.5-20.3 10.5-8.6 0-13.5-7.3-15.6-15.7 0-1.1-1.1-3.7-1.5-11 13 2.6 28.4 3.7 41.9 3.7s28.9-1.1 41.9-3.7c-.4 7.2-1.6 9.9-1.5 10.9-2.3 8.5-7.2 15.8-15.8 15.8zm-70.6-18.2c-3.5-.7-6.1-3.8-6.1-7.4 0-1.2.3-2.3.8-3.4 1.4.4 2.8.8 4.3 1.2.1 3.2.4 6.4 1 9.6zm45.9-22.4c-27.7 0-39.6-6.1-39.6-8 .2-1.6.5-3.3.9-4.9 7.5 3.7 22 6 38.7 6s31.1-2.3 38.7-6c.4 1.6.7 3.2.9 4.9 0 1.9-11.9 8-39.6 8zm-39.2-28.7h-50.3v-5.5h52.2c-.7 1.8-1.3 3.7-1.9 5.5zm10.8 109.2h56.8c15.4.1 29.3 9.5 35.2 23.8h-127.2c5.9-14.3 19.8-23.7 35.2-23.8zm67-3.7 16.1-17c1.7-1.8 1.6-4.6-.2-6.3-.8-.8-1.9-1.2-3.1-1.2h-14.1c2-5.4 3.3-11.1 4.1-16.8 1.4-2.5 2.5-5.2 3.3-7.9 6.9-.1 12.4-5.8 12.3-12.7 0-1.6-.4-3.2-1-4.7 8.3-3.1 12.4-6.9 12.4-11.4 0-8.8-16.8-13.2-25.4-15-.6-2.4-1.4-5-2.1-7.3h64.1v128h-36.1c-4.9-13.9-16.2-24.2-30.3-27.7zm66.4-105.5h-65.8c-.6-1.7-1.2-3.6-1.9-5.5h67.7zm-220-6c0-5.2 4.3-9.5 9.5-9.5h72.1c-.5 1.2-1.3 3.3-2 5h-70.1c-2.5 0-4.5 2-4.5 4.5v140c.1 2.3 2.1 4.1 4.4 4h211.2c2.3.1 4.3-1.7 4.4-4v-140c0-2.5-2-4.5-4.5-4.5h-70.1c-.7-1.7-1.5-3.8-2-5h72.1c5.2 0 9.5 4.3 9.5 9.5v140c-.1 5.1-4.3 9.1-9.4 9h-211.2c-5.1.1-9.3-3.9-9.4-9zm157.4 154c-.4 2-2.2 3.5-4.2 3.5h-75.4c-2.1 0-3.8-1.5-4.2-3.5zm-163 0h74.1c.4 4.8 4.4 8.5 9.2 8.5h75.4c4.8 0 8.8-3.7 9.2-8.5h73.1c1.3 0 2.4 1.1 2.4 2.4 0 6.4-5.2 11.6-11.6 11.6h-222.6c-6.4 0-11.6-5.2-11.6-11.6 0-1.4 1.1-2.4 2.4-2.4z"/><path d="m114.5 107.1-18.3-6.3c-2.3-.8-4.7.4-5.5 2.7-.4 1.1-.3 2.2.2 3.3l2.4 5.1c1.8 3.8 5.4 6.6 9.6 7.4 7.8 1.5 12.3-4.2 13.1-4.8 1.7-1.6 1.8-4.4.2-6.1-.4-.7-1-1.1-1.7-1.3zm-10.7 7.1c-2.6-.5-4.8-2.2-6-4.6l-1.7-3.6 15.7 5.4c-2 2.3-5 3.3-8 2.8z"/><path d="m159.8 100.8-18.3 6.3c-2.3.8-3.5 3.2-2.7 5.5.2.7.6 1.3 1.1 1.7.4.3 5 6.3 13.1 4.8 4.2-.8 7.7-3.5 9.6-7.4l2.4-5.1c1-2.2.1-4.7-2-5.8-1-.3-2.2-.4-3.2 0zm-1.7 8.9c-1.1 2.4-3.4 4.1-6 4.6-3 .5-6-.5-8-2.8l15.7-5.4z"/><path d="m135.2 128.3c.6-1.3 0-2.7-1.2-3.3s-2.7 0-3.3 1.2c-.7 1.5-2.4 2.1-3.9 1.5-.6-.3-1.2-.8-1.5-1.5-.6-1.3-2-1.8-3.3-1.3-1.3.6-1.8 2-1.3 3.3 1.8 4 6.5 5.8 10.5 3.9 1.8-.6 3.2-2 4-3.8z"/></g></g></svg>