<svg id="Layer_1" enable-background="new 0 0 256 256" height="512" viewBox="0 0 256 256" width="512" xmlns="http://www.w3.org/2000/svg"><g id="Layer_47"><g><circle cx="83.8" cy="163.1" fill="#f5c84c" r="3.2"/><circle cx="189.8" cy="228.1" fill="#70d6f9" r="3.2"/><circle cx="228.8" cy="59.1" fill="#87d147" r="3.2"/><path d="m107.4 138.7h-2.2v-2.2c0-1.6-1.3-3-3-3-1.6 0-3 1.3-3 3v2.2h-2.2c-1.6 0-3 1.3-3 3s1.3 3 3 3h2.2v2.2c0 1.6 1.3 3 3 3 1.6 0 3-1.3 3-3v-2.2h2.2c1.6 0 3-1.3 3-3s-1.4-3-3-3z" fill="#ef4460"/><path d="m227.3 35.4c-4.2-.8-7.5-4-8.4-8.2 0-.1-.1-.2-.2-.2s-.1.1-.2.2c-.9 4.2-4.2 7.5-8.4 8.2-.1 0-.2.1-.2.2s.1.1.2.2c4.2.8 7.5 4 8.4 8.2 0 .1.1.2.2.2s.1-.1.2-.2c.9-4.2 4.2-7.5 8.4-8.2.1 0 .2-.1.2-.2-.1-.1-.1-.2-.2-.2z" fill="#f5c84c"/><path d="m94.5 242.7v4.3c0 3.6 2.9 6.5 6.5 6.5h54c3.6 0 6.5-2.9 6.5-6.5v-4.3z" fill="#3a70bf"/><path d="m96.8 206.4h63.2v9.7h-63.2z" fill="#ef4460"/><path d="m94.1 179.7h67.8c1.9 0 3.4 1.5 3.4 3.4v19.9c0 1.9-1.5 3.4-3.4 3.4h-67.8c-1.9 0-3.4-1.5-3.4-3.4v-19.9c0-1.9 1.5-3.4 3.4-3.4z" fill="#5290db"/><path d="m94.1 216.1h67.8c1.9 0 3.4 1.5 3.4 3.4v19.9c0 1.9-1.5 3.4-3.4 3.4h-67.8c-1.9 0-3.4-1.5-3.4-3.4v-19.9c0-1.9 1.5-3.4 3.4-3.4z" fill="#5290db"/><path d="m157.4 55.4h-58.8c-4.2 0-7.6-3.4-7.6-7.6v-37.7c0-4.2 3.4-7.6 7.6-7.6h58.9c4.2 0 7.6 3.4 7.6 7.6v37.7c-.1 4.2-3.5 7.6-7.7 7.6z" fill="#3a70bf"/><path d="m139.6 65.8h-23.2c-2.8 0-5 2.2-5 5s2.2 5 5 5h23.2c2.8 0 5-2.2 5-5s-2.2-5-5-5z" fill="#edf4fc"/><path d="m123 55.4h10v10.4h-10z" fill="#c7d7e5"/><path d="m100.4 11.9h55.2v34h-55.2z" fill="#ef4460"/><path d="m242.4 144.3h-58.9c-4.2 0-7.6-3.4-7.6-7.6v-37.8c0-4.2 3.4-7.6 7.6-7.6h58.9c4.2 0 7.6 3.4 7.6 7.6v37.7c0 4.3-3.4 7.7-7.6 7.7z" fill="#3a70bf"/><path d="m224.6 154.7h-23.2c-2.8 0-5 2.2-5 5s2.2 5 5 5h23.2c2.8 0 5-2.2 5-5s-2.2-5-5-5z" fill="#edf4fc"/><path d="m208 144.3h10v10.4h-10z" fill="#c7d7e5"/><path d="m185.4 100.8h55.2v34h-55.2z" fill="#f5c84c"/><path d="m72.4 144.3h-58.8c-4.2 0-7.6-3.4-7.6-7.6v-37.8c0-4.2 3.4-7.6 7.6-7.6h58.9c4.2 0 7.6 3.4 7.6 7.6v37.7c-.1 4.3-3.5 7.7-7.7 7.7z" fill="#3a70bf"/><path d="m54.6 154.7h-23.2c-2.8 0-5 2.2-5 5s2.2 5 5 5h23.2c2.8 0 5-2.2 5-5s-2.2-5-5-5z" fill="#edf4fc"/><path d="m38 144.3h10v10.4h-10z" fill="#c7d7e5"/><path d="m15.4 100.8h55.2v34h-55.2z" fill="#f5c84c"/><g fill="#ef4460"><path d="m180.2 41.1c-2.1 1.6-2.6 4.5-1 6.7l13.6 18.6-4.5-.7c-2.6-.4-5 1.4-5.4 4s1.4 5 4 5.4l16 2.5c2.6.4 5.1-1.4 5.5-4l2.5-16c.4-2.6-1.4-5-4-5.4s-5 1.4-5.4 4l-.7 4.5-13.6-18.6c-1.8-2.1-4.8-2.6-7-1z"/><path d="m75.8 41.1c2.1 1.6 2.6 4.5 1 6.7l-13.6 18.6 4.5-.7c2.6-.4 5.1 1.3 5.5 3.9s-1.3 5.1-3.9 5.5h-.1l-16 2.5c-2.6.4-5.1-1.4-5.5-4l-2.5-16c-.4-2.6 1.4-5 4-5.4s5 1.4 5.4 4l.7 4.5 13.6-18.6c1.7-2.1 4.7-2.6 6.9-1z"/><path d="m208.8 176.9c2.1 1.6 2.6 4.5 1 6.7l-13.6 18.6 4.5-.7c2.6-.4 5 1.4 5.4 4s-1.4 5-4 5.4l-16 2.5c-2.6.4-5.1-1.4-5.5-4l-2.5-15.9c-.4-2.6 1.4-5 4-5.4s5 1.4 5.4 4l.7 4.5 13.6-18.6c1.8-2.2 4.8-2.7 7-1.1z"/><path d="m47.2 176.9c-2.1 1.6-2.6 4.5-1 6.7l13.6 18.6-4.5-.7c-2.6-.4-5 1.4-5.4 4s1.4 5 4 5.4l16 2.5c2.6.4 5.1-1.4 5.5-4l2.5-15.9c.4-2.6-1.4-5-4-5.4s-5 1.4-5.4 4l-.7 4.5-13.6-18.6c-1.8-2.2-4.8-2.7-7-1.1z"/></g><path d="m185.4 126.1h55.2v8.8h-55.2z" fill="#3caadc"/><path d="m185.4 126.1h10.2v8.8h-10.2z" fill="#f5c84c"/><path d="m15.4 126.1h55.2v8.8h-55.2z" fill="#3caadc"/><path d="m15.4 126.1h10.2v8.8h-10.2z" fill="#f5c84c"/><path d="m100.4 37.2h55.2v8.8h-55.2z" fill="#3caadc"/><path d="m100.4 37.2h10.2v8.8h-10.2z" fill="#f5c84c"/><path d="m167.8 203v-19.9c0-3.2-2.6-5.8-5.9-5.9h-67.8c-3.2 0-5.8 2.6-5.9 5.9v19.9c0 3.2 2.6 5.9 5.9 5.9h.2v4.7h-.2c-3.2 0-5.8 2.6-5.9 5.9v19.9c0 2.4 1.5 4.6 3.8 5.5v2.2c0 5 4 9 9 9h54c5 0 9-4 9-9v-2.2c2.3-.9 3.7-3 3.8-5.5v-19.9c0-3-2.3-5.5-5.3-5.8v-4.8c2.9-.4 5.2-2.9 5.3-5.9zm-8.8 44c0 2.2-1.8 4-4 4h-54c-2.2 0-4-1.8-4-4v-1.8h62zm3.8-27.6v19.9c0 .5-.4.8-.9.9h-67.8c-.5 0-.8-.4-.9-.9v-19.9c0-.5.4-.8.9-.9h67.8c.5.1.8.5.9.9zm-63.5-5.8v-4.7h58.2v4.7zm62.6-9.7h-67.8c-.5 0-.8-.4-.9-.9v-19.9c0-.5.4-.8.9-.9h67.8c.5 0 .8.4.9.9v19.9c-.1.5-.4.8-.9.9z"/><path d="m102 186.8c-1.4 0-2.5 1.1-2.5 2.5v7.4c0 1.4 1.1 2.5 2.5 2.5s2.5-1.1 2.5-2.5v-7.4c0-1.4-1.1-2.5-2.5-2.5z"/><path d="m111.2 186.8c-1.4 0-2.5 1.1-2.5 2.5v7.4c0 1.4 1.1 2.5 2.5 2.5s2.5-1.1 2.5-2.5v-7.4c0-1.4-1.1-2.5-2.5-2.5z"/><path d="m120.5 186.8c-1.4 0-2.5 1.1-2.5 2.5v7.4c0 1.4 1.1 2.5 2.5 2.5s2.5-1.1 2.5-2.5v-7.4c0-1.4-1.1-2.5-2.5-2.5z"/><path d="m129.8 186.8c-1.4 0-2.5 1.1-2.5 2.5v7.4c0 1.4 1.1 2.5 2.5 2.5s2.5-1.1 2.5-2.5v-7.4c0-1.4-1.2-2.5-2.5-2.5z"/><path d="m139 186.8c-1.4 0-2.5 1.1-2.5 2.5v7.4c0 1.4 1.1 2.5 2.5 2.5s2.5-1.1 2.5-2.5v-7.4c0-1.4-1.1-2.5-2.5-2.5z"/><path d="m154.7 190.5h-6.4c-1.4 0-2.5 1.1-2.5 2.5s1.1 2.5 2.5 2.5h6.4c1.4 0 2.5-1.1 2.5-2.5s-1.2-2.5-2.5-2.5z"/><path d="m102 223.2c-1.4 0-2.5 1.1-2.5 2.5v7.4c0 1.4 1.1 2.5 2.5 2.5s2.5-1.1 2.5-2.5v-7.4c0-1.4-1.1-2.5-2.5-2.5z"/><path d="m111.2 223.2c-1.4 0-2.5 1.1-2.5 2.5v7.4c0 1.4 1.1 2.5 2.5 2.5s2.5-1.1 2.5-2.5v-7.4c0-1.4-1.1-2.5-2.5-2.5z"/><path d="m120.5 223.2c-1.4 0-2.5 1.1-2.5 2.5v7.4c0 1.4 1.1 2.5 2.5 2.5s2.5-1.1 2.5-2.5v-7.4c0-1.4-1.1-2.5-2.5-2.5z"/><path d="m129.8 223.2c-1.4 0-2.5 1.1-2.5 2.5v7.4c0 1.4 1.1 2.5 2.5 2.5s2.5-1.1 2.5-2.5v-7.4c0-1.4-1.2-2.5-2.5-2.5z"/><path d="m139 223.2c-1.4 0-2.5 1.1-2.5 2.5v7.4c0 1.4 1.1 2.5 2.5 2.5s2.5-1.1 2.5-2.5v-7.4c0-1.4-1.1-2.5-2.5-2.5z"/><path d="m154.7 226.9h-6.4c-1.4 0-2.5 1.1-2.5 2.5s1.1 2.5 2.5 2.5h6.4c1.4 0 2.5-1.1 2.5-2.5s-1.2-2.5-2.5-2.5z"/><path d="m157.4 57.9c5.6 0 10.1-4.5 10.1-10.1v-37.7c0-5.6-4.5-10.1-10.1-10.1h-58.8c-5.6 0-10.1 4.5-10.1 10.1v37.7c0 5.6 4.5 10.1 10.1 10.1h21.9v5.4h-4.1c-4.1 0-7.5 3.4-7.5 7.5s3.4 7.5 7.5 7.5h23.2c4.1 0 7.5-3.4 7.5-7.5s-3.4-7.5-7.5-7.5h-4.1v-5.4zm-17.8 10.4c1.4 0 2.5 1.1 2.5 2.5s-1.1 2.5-2.5 2.5h-23.2c-1.4 0-2.5-1.1-2.5-2.5s1.1-2.5 2.5-2.5zm-14.1-5v-5.4h5v5.4zm-26.9-10.4c-2.8 0-5.1-2.3-5.1-5.1v-37.7c0-2.8 2.3-5.1 5.1-5.1h58.9c2.8 0 5.1 2.3 5.1 5.1v37.7c0 2.8-2.3 5.1-5.1 5.1z"/><path d="m242.4 146.8c5.6 0 10.1-4.5 10.1-10.1v-37.8c0-5.6-4.5-10.1-10.1-10.1h-58.9c-5.6 0-10.1 4.5-10.1 10.1v37.7c0 5.6 4.5 10.1 10.1 10.1h21.9v5.4h-4.1c-4.1 0-7.5 3.4-7.5 7.5s3.4 7.5 7.5 7.5h23.2c4.1 0 7.5-3.4 7.5-7.5s-3.4-7.5-7.5-7.5h-4.1v-5.4h22zm-17.8 10.4c1.4 0 2.5 1.1 2.5 2.5s-1.1 2.5-2.5 2.5h-23.2c-1.4 0-2.5-1.1-2.5-2.5s1.1-2.5 2.5-2.5zm-14.1-5v-5.4h5v5.4zm-26.9-10.4c-2.8 0-5.1-2.3-5.1-5.1v-37.8c0-2.8 2.3-5.1 5.1-5.1h58.9c2.8 0 5.1 2.3 5.1 5.1v37.7c0 2.8-2.3 5.1-5.1 5.1z"/><path d="m3.5 98.9v37.7c0 5.6 4.5 10.1 10.1 10.1h21.9v5.4h-4.1c-4.1 0-7.5 3.4-7.5 7.5s3.4 7.5 7.5 7.5h23.2c4.1 0 7.5-3.4 7.5-7.5s-3.4-7.5-7.5-7.5h-4.1v-5.4h21.9c5.6 0 10.1-4.5 10.1-10.1v-37.7c0-5.6-4.5-10.1-10.1-10.1h-58.8c-5.6 0-10.1 4.6-10.1 10.1zm51.1 58.3c1.4 0 2.5 1.1 2.5 2.5s-1.1 2.5-2.5 2.5h-23.2c-1.4 0-2.5-1.1-2.5-2.5s1.1-2.5 2.5-2.5zm-14.1-5v-5.4h5v5.4zm37-53.3v37.7c0 2.8-2.3 5.1-5.1 5.1h-58.8c-2.8 0-5.1-2.3-5.1-5.1v-37.7c0-2.8 2.3-5.1 5.1-5.1h58.9c2.8 0 5 2.3 5 5.1z"/><path d="m12.9 134.8c0 1.4 1.1 2.5 2.5 2.5h55.2c1.4 0 2.5-1.1 2.5-2.5v-34c0-1.4-1.1-2.5-2.5-2.5h-55.2c-1.4 0-2.5 1.1-2.5 2.5zm55.2-2.5h-40v-3.8h40zm-50.2-29h50.2v20.3h-50.2zm0 25.3h5.2v3.8h-5.2z"/><path d="m180.3 69.3c-.6 4 2.1 7.7 6.1 8.3l15.9 2.5c4 .6 7.7-2.1 8.3-6.1l2.5-16c.6-4-2.1-7.7-6.1-8.3-3.5-.5-6.8 1.5-8 4.8l-10.1-13.9c-2.4-3.2-6.9-4-10.2-1.6-3.2 2.4-4 6.9-1.6 10.2l10.1 13.9c-3.4.1-6.3 2.7-6.9 6.2zm5 .8c.2-1.2 1.4-2.1 2.6-1.9l4.5.7c1.4.2 2.6-.7 2.9-2.1.1-.7-.1-1.3-.4-1.9l-13.6-18.6c-.7-1-.5-2.4.5-3.2 1-.7 2.4-.5 3.2.5l13.6 18.6c.8 1.1 2.4 1.4 3.5.5.5-.4.9-1 1-1.6l.7-4.5c.2-1.2 1.4-2.1 2.6-1.9s2.1 1.4 1.9 2.6l-2.5 16c-.2 1.2-1.4 2.1-2.6 1.9l-15.9-2.5c-1.4-.2-2.2-1.4-2-2.6z"/><path d="m77.2 39.1c-3.2-2.4-7.8-1.7-10.2 1.6l-10.1 13.8c-1.3-3.8-5.5-5.8-9.3-4.5-3.3 1.2-5.3 4.5-4.8 8l2.5 16c.6 4 4.3 6.7 8.3 6.1l16-2.5c4-.6 6.7-4.3 6.1-8.3-.5-3.5-3.5-6.1-7-6.2l10.1-13.9c2.4-3.2 1.7-7.8-1.6-10.1zm-2.4 7.2-13.6 18.6c-.8 1.1-.6 2.7.6 3.5.5.4 1.2.6 1.9.4l4.5-.7c1.2-.2 2.4.7 2.6 1.9s-.7 2.4-1.9 2.6l-16 2.5c-1.2.2-2.4-.7-2.6-1.9l-2.5-16c-.2-1.2.7-2.4 1.9-2.6s2.4.7 2.6 1.9l.7 4.5c.2 1.4 1.5 2.3 2.9 2.1.7-.1 1.2-.5 1.6-1l13.6-18.6c.7-1 2.2-1.2 3.2-.5 1 .8 1.2 2.3.5 3.3z"/><path d="m210.2 174.9c-3.2-2.4-7.8-1.7-10.2 1.6l-10.1 13.9c-1.3-3.8-5.5-5.8-9.3-4.5-3.3 1.2-5.3 4.5-4.8 8l2.5 15.9c.6 4 4.3 6.7 8.3 6.1l16-2.5c4-.6 6.7-4.3 6.1-8.3-.5-3.5-3.5-6.1-7-6.2l10.1-13.9c2.4-3.2 1.7-7.7-1.6-10.1zm-2.4 7.2-13.6 18.6c-.8 1.1-.6 2.7.6 3.5.5.4 1.2.6 1.9.4l4.5-.7c1.2-.2 2.4.7 2.6 1.9s-.7 2.4-1.9 2.6l-15.9 2.5c-1.2.2-2.4-.7-2.6-1.9l-2.5-15.9c-.2-1.2.7-2.4 1.9-2.6s2.4.7 2.6 1.9l.7 4.5c.2 1.4 1.5 2.3 2.9 2.1.7-.1 1.2-.5 1.6-1l13.6-18.6c.7-1 2.2-1.2 3.2-.5.9.8 1.1 2.2.4 3.2z"/><path d="m47.3 205.1c-.6 4 2.1 7.7 6.1 8.3l16 2.5c4 .6 7.7-2.1 8.3-6.1l2.5-16c.6-4-2.1-7.7-6.1-8.3-3.5-.5-6.8 1.5-8 4.8l-10.1-13.9c-2.4-3.2-6.9-4-10.2-1.6-3.2 2.4-4 6.9-1.6 10.2l10.1 14c-3.5.1-6.4 2.6-7 6.1zm5 .8c.2-1.2 1.4-2.1 2.6-1.9l4.5.7c1.4.2 2.6-.7 2.9-2.1.1-.7-.1-1.3-.4-1.9l-13.6-18.6c-.7-1-.5-2.4.5-3.2 1-.7 2.4-.5 3.2.5l13.5 18.6c.8 1.1 2.4 1.4 3.5.5.5-.4.9-1 1-1.6l.7-4.5c.2-1.2 1.4-2.1 2.6-1.9s2.1 1.4 1.9 2.6l-2.5 15.9c-.2 1.2-1.4 2.1-2.6 1.9l-15.9-2.5c-1.3-.1-2.1-1.3-1.9-2.5z"/><path d="m243.1 100.8c0-1.4-1.1-2.5-2.5-2.5h-55.2c-1.4 0-2.5 1.1-2.5 2.5v34c0 1.4 1.1 2.5 2.5 2.5h55.2c1.4 0 2.5-1.1 2.5-2.5zm-50 31.5h-5.2v-3.8h5.2zm45 0h-40v-3.8h40zm0-8.7h-50.2v-20.3h50.2z"/><path d="m158.1 11.9c0-1.4-1.1-2.5-2.5-2.5h-55.2c-1.4 0-2.5 1.1-2.5 2.5v34c0 1.4 1.1 2.5 2.5 2.5h55.2c1.4 0 2.5-1.1 2.5-2.5zm-50 31.6h-5.2v-3.8h5.2zm45 0h-40v-3.8h40zm0-8.8h-50.2v-20.3h50.2z"/></g></g></svg>