<svg id="Layer_1" enable-background="new 0 0 256 256" height="512" viewBox="0 0 256 256" width="512" xmlns="http://www.w3.org/2000/svg"><g id="Layer_86"><g><path d="m233.5 36.8h-211c-6.6 0-12 5.4-12 12v140 .9c.6 6.1 5.8 10.7 11.9 10.6h211.2c6.1.1 11.3-4.5 11.9-10.6 0-.3 0-.6 0-.9v-140c0-6.7-5.4-12-12-12z" fill="#3a70bf"/><path d="m233.6 190.2c.9.1 1.7-.5 1.9-1.4v-.1-140c0-1.1-.9-2-2-2h-211c-1.1 0-2 .9-2 2v140 .2c.2.8 1 1.4 1.9 1.3z" fill="#9be5f9"/><g fill="#edf4fc"><path d="m194.5 169.9c.5 0 1-.3 1.2-.9v-.1-88.1c0-.7-.6-1.2-1.3-1.3h-132.8c-.7 0-1.2.6-1.3 1.3v88.2.1c.1.5.6.9 1.2.8z"/><path d="m233.5 46.8h-211c-1.1 0-2 .9-2 2v8.5h215v-8.5c0-1.1-.9-2-2-2z"/><path d="m248.6 200.2h-241.2c-2.7 0-4.9 2.2-4.9 4.9 0 7.8 6.3 14.1 14.1 14.1h222.8c7.8 0 14.1-6.3 14.1-14.1 0-2.7-2.2-4.8-4.9-4.9z"/></g><path d="m36 46.8h-13.5c-1.1 0-2 .9-2 2v8.5h15.5z" fill="#9be5f9"/><path d="m84 200.2v1.7c0 3.7 3 6.8 6.8 6.8h75.4c3.7 0 6.8-3 6.8-6.8v-1.7z" fill="#c7d7e5"/><path d="m66.6 21.9c-4-.7-7.1-3.8-7.9-7.7 0-.1-.1-.2-.2-.1-.1 0-.1.1-.1.1-.8 4-3.9 7-7.9 7.7-.1 0-.2.1-.1.2 0 .1.1.1.1.1 4 .7 7.1 3.8 7.9 7.7 0 .1.1.2.2.1.1 0 .1-.1.1-.1.8-4 3.9-7 7.9-7.7.1 0 .2-.1.1-.2 0 0 0-.1-.1-.1z" fill="#f5c84c"/><circle cx="105.7" cy="233.6" fill="#f5c84c" r="3"/><circle cx="88.7" cy="10.6" fill="#87d147" r="3"/><circle cx="202.7" cy="21.6" fill="#3caadc" r="3"/><path d="m141.3 237.9h-2.1v-2.1c0-1.5-1.3-2.8-2.8-2.8s-2.8 1.3-2.8 2.8v2.1h-2.1c-1.5 0-2.8 1.3-2.8 2.8s1.3 2.8 2.8 2.8h2.1v2.1c0 1.5 1.3 2.8 2.8 2.8s2.8-1.3 2.8-2.8v-2.1h2.1c1.5 0 2.8-1.3 2.8-2.8s-1.3-2.8-2.8-2.8z" fill="#ef4460"/><circle cx="145" cy="103" fill="#9be5f9" r="6"/><path d="m170.8 124.5c-4.7-8.3-11.7-15-20.3-19.2-1.3 3-4.8 4.5-7.9 3.2-2.8-1.2-4.3-4.3-3.4-7.2-3.7-.8-7.4-1.2-11.2-1.2-18.6 0-34.7 9.9-42.8 24.4-.6 1.1-.6 2.5 0 3.6 8.1 14.5 24.2 24.4 42.8 24.4s34.7-9.9 42.8-24.4c.6-1.1.6-2.5 0-3.6z" fill="#c7d7e5"/><path d="m148 108.2c-2.9 1.7-6.5.7-8.2-2.2-.8-1.3-1-2.8-.7-4.3-.6-.3-1.2-.5-1.8-.7-6.1-1.1-12.4-1.1-18.6 0-14 5.1-21.2 20.7-16.1 34.7 2.7 7.4 8.6 13.3 16.1 16.1 6.1 1.1 12.4 1.1 18.6 0 14-5.1 21.2-20.6 16.1-34.6-1.2-3.4-3.1-6.5-5.4-9z" fill="#3a70bf"/><path d="m124.3 118.7h7.5c2.1 0 3.8 1.7 3.8 3.8v7.5c0 2.1-1.7 3.8-3.8 3.8h-7.5c-2.1 0-3.8-1.7-3.8-3.8v-7.5c0-2.1 1.7-3.8 3.8-3.8z" fill="#f5c84c"/><path d="m22.4 192.8h211.2c2.3.1 4.3-1.7 4.4-4v-140c0-2.5-2-4.5-4.5-4.5h-211c-2.5 0-4.5 2-4.5 4.5v140c.1 2.3 2.1 4 4.4 4zm16.1-143.6h194.5v5.5h-194.5zm-15.5 0h10.5v5.5h-10.5zm0 10.6h210v128h-210z"/><path d="m60.3 102.1c1.4 0 2.5-1.1 2.5-2.5v-17.5h18.7c1.4 0 2.5-1.1 2.5-2.5s-1.1-2.5-2.5-2.5h-20c-2.1 0-3.8 1.7-3.8 3.8v18.7c.1 1.4 1.2 2.5 2.6 2.5z"/><path d="m195.7 147.4c-1.4 0-2.5 1.1-2.5 2.5v17.5h-18.7c-1.4 0-2.5 1.1-2.5 2.5s1.1 2.5 2.5 2.5h20c1.9 0 3.5-1.3 3.7-3.2 0-.1 0-.2 0-.3v-19.1c0-1.3-1.1-2.4-2.5-2.4z"/><path d="m194.4 77.1h-20c-1.4 0-2.5 1.1-2.5 2.5s1.1 2.5 2.5 2.5h18.7v17.5c0 1.4 1.1 2.5 2.5 2.5s2.5-1.1 2.5-2.5v-18.8c.1-2-1.6-3.7-3.7-3.7z"/><path d="m81.6 167.4h-18.8v-17.5c0-1.4-1.1-2.5-2.5-2.5s-2.5 1.1-2.5 2.5v19.1.3c.2 1.8 1.8 3.2 3.7 3.2h20c1.4 0 2.5-1.1 2.5-2.5s-1.1-2.6-2.4-2.6z"/><path d="m248.6 197.8h-4c2.2-2.5 3.4-5.7 3.4-9v-140c0-8-6.5-14.5-14.5-14.5h-211c-8 0-14.5 6.5-14.5 14.5v140c0 3.3 1.2 6.5 3.4 9h-4c-4.1 0-7.4 3.3-7.4 7.4 0 9.2 7.4 16.6 16.6 16.6h222.8c9.2 0 16.6-7.4 16.6-16.6 0-4.1-3.3-7.4-7.4-7.4zm-235.6-149c0-5.2 4.3-9.5 9.5-9.5h211c5.2 0 9.5 4.3 9.5 9.5v140c-.1 5.1-4.3 9.1-9.4 9h-211.2c-5.1.1-9.3-3.9-9.4-9zm157.4 154c-.4 2-2.2 3.5-4.2 3.5h-75.4c-2.1 0-3.8-1.5-4.2-3.5zm69 14h-222.8c-6.4 0-11.6-5.2-11.6-11.6 0-1.3 1.1-2.4 2.4-2.4h74.1c.4 4.8 4.4 8.5 9.2 8.5h75.4c4.8 0 8.8-3.7 9.2-8.5h73.1c1.3 0 2.4 1.1 2.4 2.4.2 6.4-5 11.5-11.4 11.6z"/><path d="m141.9 122.6c1.3-.5 1.9-2 1.4-3.3s-2-1.9-3.2-1.4l-2.9 1.2c-.5-.8-1.2-1.5-2-2l.5-1.4h2.3c1.4 0 2.5-1.1 2.5-2.5s-1.1-2.5-2.5-2.5h-4c-1 0-1.9.6-2.3 1.6l-1.5 3.8h-4.3l-1.5-3.8c-.4-.9-1.3-1.6-2.3-1.6h-4c-1.4 0-2.5 1.1-2.5 2.5s1.1 2.5 2.5 2.5h2.3l.6 1.4c-.8.5-1.4 1.2-1.9 2l-3-1.2c-1.3-.5-2.7.1-3.2 1.4s.1 2.7 1.4 3.2l3.9 1.6v4.2l-3.9 1.6c-1.3.5-1.9 2-1.4 3.2.5 1.3 2 1.9 3.2 1.4l3-1.2c.5.8 1.2 1.5 1.9 2l-.6 1.4h-2.4c-1.4 0-2.5 1.1-2.5 2.5s1.1 2.5 2.5 2.5h4c1 0 1.9-.6 2.3-1.6l1.5-3.8h4.3l1.5 3.8c.4.9 1.3 1.6 2.3 1.6h4c1.4 0 2.5-1.1 2.5-2.5s-1.1-2.5-2.5-2.5h-2.3l-.5-1.4c.8-.5 1.5-1.2 2-2l2.9 1.2c1.3.5 2.7-.1 3.2-1.4s-.1-2.7-1.4-3.2l-3.8-1.5v-4.3zm-8.8 7.5c0 .7-.6 1.3-1.3 1.3h-7.5c-.7 0-1.3-.6-1.3-1.3v-7.5c0-.7.6-1.3 1.3-1.3h7.5c.7 0 1.3.6 1.3 1.3z"/><path d="m172.9 123.3c-4.6-8.1-11.3-14.8-19.5-19.2.6-4.7-2.7-8.9-7.3-9.5-3.3-.4-6.5 1.1-8.3 4-3.2-.6-6.5-.9-9.8-.9-18.5 0-36 9.5-44.9 25.7-1.1 1.9-1.1 4.2 0 6.1 8.9 15.9 26.3 25.5 44.9 25.5 18.5 0 35.9-9.5 44.9-25.7 1.1-1.8 1.1-4.1 0-6zm-27.9-23.8c1.9 0 3.5 1.6 3.5 3.5s-1.6 3.5-3.5 3.5-3.5-1.6-3.5-3.5c0-2 1.5-3.5 3.5-3.5zm-57.6 27.4c-.2-.4-.2-.8 0-1.2 4-7.1 9.8-12.9 16.9-16.9-7.8 10.4-7.8 24.6 0 35-7.1-4-12.9-9.8-16.9-16.9zm49.3 22.3c-5.7 1-11.6 1-17.4 0-12.7-4.8-19-18.9-14.2-31.6 2.5-6.6 7.7-11.7 14.2-14.2 5.7-1 11.5-1 17.2-.1.2 4.7 4.2 8.3 8.9 8.1.6 0 1.3-.1 1.9-.3 8.4 10.6 6.6 26-4.1 34.4-2 1.6-4.2 2.8-6.5 3.7zm31.9-22.3c-4 7.1-9.8 12.9-16.9 16.9 7.7-10.4 7.8-24.6.1-35 7 4 12.9 9.8 16.8 16.9.2.4.2.8 0 1.2z"/></g></g></svg>