<svg id="svg" version="1.1" xmlns="http://www.w3.org/2000/svg" xmlns:xlink="http://www.w3.org/1999/xlink" width="400" height="400" viewBox="0, 0, 400,400"><g id="svgg"><path id="path0" d="M55.264 125.463 C 52.414 129.282,46.379 137.324,41.852 143.333 L 33.621 154.259 46.901 154.357 C 54.205 154.410,60.391 154.374,60.646 154.276 C 61.207 154.060,61.339 118.519,60.779 118.519 C 60.596 118.519,58.114 121.644,55.264 125.463 M338.519 136.308 C 338.519 150.234,338.619 154.136,338.983 154.276 C 339.239 154.374,345.424 154.410,352.728 154.357 L 366.009 154.259 357.778 143.333 C 353.251 137.324,347.215 129.282,344.365 125.463 C 341.515 121.644,339.034 118.519,338.851 118.519 C 338.659 118.519,338.519 126.049,338.519 136.308 M130.370 142.009 L 60.926 154.261 60.829 167.969 L 60.732 181.677 199.815 181.677 L 338.898 181.677 338.801 167.973 L 338.704 154.269 320.370 151.024 C 310.287 149.240,299.620 147.356,296.667 146.839 C 293.713 146.321,289.463 145.575,287.222 145.181 C 284.981 144.787,277.481 143.472,270.556 142.260 C 251.002 138.838,200.991 130.015,200.370 129.879 C 200.065 129.811,168.565 135.270,130.370 142.009 M144.444 222.810 C 144.444 222.930,145.183 225.888,146.087 229.384 C 146.990 232.880,149.252 241.741,151.113 249.074 C 157.445 274.023,159.302 281.278,159.374 281.340 C 159.413 281.374,168.477 272.670,179.517 261.997 C 190.558 251.325,199.691 242.593,199.815 242.593 C 199.938 242.593,209.072 251.325,220.112 261.997 C 231.152 272.670,240.218 281.373,240.258 281.338 C 240.334 281.271,242.605 272.392,248.700 248.333 C 250.661 240.593,252.844 232.043,253.551 229.334 C 254.258 226.625,254.738 224.250,254.619 224.056 C 254.499 223.862,254.577 223.704,254.793 223.704 C 255.009 223.704,255.185 223.454,255.185 223.148 C 255.185 222.657,248.786 222.593,199.815 222.593 C 169.361 222.593,144.444 222.690,144.444 222.810 " stroke="none" fill="#fc7b1c" fill-rule="evenodd"></path><path id="path1" d="M45.928 166.944 C 52.725 173.819,58.838 180.025,59.513 180.735 L 60.741 182.025 60.741 168.235 L 60.741 154.444 47.156 154.444 L 33.571 154.444 45.928 166.944 M338.889 168.164 L 338.889 181.884 352.130 168.495 C 359.412 161.131,365.426 154.957,365.494 154.775 C 365.565 154.585,359.934 154.444,352.253 154.444 L 338.889 154.444 338.889 168.164 M134.299 181.788 C 134.052 182.188,135.946 189.779,136.331 189.931 C 136.493 189.995,136.549 190.245,136.457 190.487 C 136.327 190.824,150.992 190.926,199.815 190.926 C 248.637 190.926,263.303 190.824,263.173 190.487 C 263.080 190.245,263.137 189.995,263.299 189.931 C 263.684 189.779,265.578 182.188,265.331 181.788 C 265.083 181.387,134.546 181.387,134.299 181.788 M179.665 262.143 L 159.885 281.296 179.971 281.392 C 191.018 281.445,208.987 281.445,219.902 281.392 L 239.747 281.296 220.009 262.222 C 209.153 251.731,200.085 243.113,199.857 243.069 C 199.630 243.026,190.544 251.609,179.665 262.143 " stroke="none" fill="#ee4d04" fill-rule="evenodd"></path><path id="path2" d="M354.447 166.111 L 343.154 177.593 354.617 166.219 C 360.921 159.963,366.003 154.796,365.910 154.737 C 365.817 154.678,360.659 159.796,354.447 166.111 M44.815 166.111 C 51.025 172.324,56.190 177.407,56.292 177.407 C 56.394 177.407,51.396 172.324,45.185 166.111 C 38.975 159.898,33.810 154.815,33.708 154.815 C 33.606 154.815,38.604 159.898,44.815 166.111 M136.578 190.952 C 136.461 191.070,136.933 193.319,137.627 195.951 C 138.321 198.583,138.889 200.820,138.889 200.923 C 138.889 201.027,166.284 201.111,199.767 201.111 L 260.646 201.111 261.782 196.759 C 262.407 194.366,262.970 192.074,263.033 191.667 C 263.146 190.940,137.301 190.229,136.578 190.952 M192.023 250.093 L 190.185 252.037 192.130 250.199 C 193.936 248.491,194.244 248.148,193.968 248.148 C 193.909 248.148,193.034 249.023,192.023 250.093 M207.222 250.000 C 208.225 251.019,209.130 251.852,209.231 251.852 C 209.333 251.852,208.596 251.019,207.593 250.000 C 206.589 248.981,205.685 248.148,205.583 248.148 C 205.482 248.148,206.219 248.981,207.222 250.000 M181.282 260.463 L 179.444 262.407 181.389 260.569 C 182.458 259.559,183.333 258.684,183.333 258.625 C 183.333 258.349,182.990 258.656,181.282 260.463 M217.963 260.370 C 218.966 261.389,219.870 262.222,219.972 262.222 C 220.074 262.222,219.337 261.389,218.333 260.370 C 217.330 259.352,216.426 258.519,216.324 258.519 C 216.222 258.519,216.960 259.352,217.963 260.370 M170.542 270.833 L 168.704 272.778 170.648 270.940 C 171.718 269.929,172.593 269.054,172.593 268.995 C 172.593 268.719,172.249 269.027,170.542 270.833 M228.704 270.741 C 229.707 271.759,230.611 272.593,230.713 272.593 C 230.815 272.593,230.077 271.759,229.074 270.741 C 228.071 269.722,227.167 268.889,227.065 268.889 C 226.963 268.889,227.701 269.722,228.704 270.741 M160.532 280.463 L 159.444 281.667 160.648 280.579 C 161.770 279.565,162.022 279.259,161.736 279.259 C 161.672 279.259,161.131 279.801,160.532 280.463 M237.778 279.375 C 237.778 279.439,238.319 279.981,238.981 280.579 L 240.185 281.667 239.097 280.463 C 238.083 279.341,237.778 279.089,237.778 279.375 " stroke="none" fill="#f45a0c" fill-rule="evenodd"></path><path id="path3" d="M141.407 210.444 C 141.652 210.689,141.852 211.300,141.852 211.803 C 141.852 212.897,143.595 219.913,144.094 220.828 C 144.287 221.182,144.444 221.724,144.444 222.032 C 144.444 222.530,150.617 222.593,199.756 222.593 L 255.067 222.593 255.501 221.204 C 256.460 218.141,257.776 212.723,257.777 211.833 C 257.777 211.314,257.978 210.689,258.222 210.444 C 258.568 210.099,245.588 210.000,199.815 210.000 C 154.041 210.000,141.062 210.099,141.407 210.444 M197.579 244.537 L 195.741 246.481 197.685 244.644 C 198.755 243.633,199.630 242.758,199.630 242.699 C 199.630 242.423,199.287 242.730,197.579 244.537 M201.667 244.444 C 202.670 245.463,203.574 246.296,203.676 246.296 C 203.778 246.296,203.040 245.463,202.037 244.444 C 201.034 243.426,200.130 242.593,200.028 242.593 C 199.926 242.593,200.663 243.426,201.667 244.444 M187.208 254.537 L 185.370 256.481 187.315 254.644 C 188.384 253.633,189.259 252.758,189.259 252.699 C 189.259 252.423,188.916 252.730,187.208 254.537 M212.037 254.444 C 213.040 255.463,213.944 256.296,214.046 256.296 C 214.148 256.296,213.411 255.463,212.407 254.444 C 211.404 253.426,210.500 252.593,210.398 252.593 C 210.296 252.593,211.034 253.426,212.037 254.444 M176.468 264.907 L 174.630 266.852 176.574 265.014 C 177.644 264.003,178.519 263.128,178.519 263.069 C 178.519 262.793,178.175 263.101,176.468 264.907 M222.778 264.815 C 223.781 265.833,224.685 266.667,224.787 266.667 C 224.889 266.667,224.151 265.833,223.148 264.815 C 222.145 263.796,221.241 262.963,221.139 262.963 C 221.037 262.963,221.775 263.796,222.778 264.815 M165.913 275.093 L 163.889 277.222 166.019 275.198 C 167.997 273.317,168.318 272.963,168.043 272.963 C 167.985 272.963,167.027 273.921,165.913 275.093 M233.333 275.000 C 234.440 276.120,235.428 277.037,235.530 277.037 C 235.632 277.037,234.810 276.120,233.704 275.000 C 232.597 273.880,231.609 272.963,231.507 272.963 C 231.405 272.963,232.227 273.880,233.333 275.000 " stroke="none" fill="#fc6c14" fill-rule="evenodd"></path><path id="path4" d="M140.043 205.093 C 140.645 207.282,141.159 209.282,141.186 209.537 C 141.258 210.218,258.372 210.218,258.444 209.537 C 258.471 209.282,258.985 207.282,259.587 205.093 L 260.681 201.111 199.815 201.111 L 138.949 201.111 140.043 205.093 M184.236 257.500 L 183.148 258.704 184.352 257.616 C 185.474 256.602,185.726 256.296,185.440 256.296 C 185.376 256.296,184.834 256.838,184.236 257.500 M214.074 256.412 C 214.074 256.476,214.616 257.018,215.278 257.616 L 216.481 258.704 215.394 257.500 C 214.380 256.378,214.074 256.126,214.074 256.412 M173.495 267.870 L 172.407 269.074 173.611 267.986 C 174.733 266.972,174.985 266.667,174.699 266.667 C 174.635 266.667,174.094 267.208,173.495 267.870 M224.815 266.783 C 224.815 266.846,225.356 267.388,226.019 267.986 L 227.222 269.074 226.134 267.870 C 225.120 266.748,224.815 266.496,224.815 266.783 M162.754 278.241 L 161.667 279.444 162.870 278.357 C 163.992 277.343,164.244 277.037,163.958 277.037 C 163.894 277.037,163.353 277.579,162.754 278.241 M235.556 277.153 C 235.556 277.217,236.097 277.758,236.759 278.357 L 237.963 279.444 236.875 278.241 C 235.861 277.119,235.556 276.867,235.556 277.153 " stroke="none" fill="#f96411" fill-rule="evenodd"></path></g></svg>